{
	"asset":{
		"generator":"Khronos glTF Blender I/O v3.6.27",
		"version":"2.0"
	},
	"extensionsUsed":[
		"KHR_materials_specular"
	],
	"scene":0,
	"scenes":[
		{
			"name":"Scene",
			"nodes":[
				1
			]
		}
	],
	"nodes":[
		{
			"mesh":0,
			"name":"shelf.001_details_0"
		},
		{
			"children":[
				0
			],
			"name":"shelf.001",
			"rotation":[
				-0.70710688829422,
				0,
				0,
				0.7071066498756409
			],
			"scale":[
				0.800000011920929,
				0.7999999523162842,
				0.7999999523162842
			],
			"translation":[
				1.108731746673584,
				1.226672887802124,
				-0.09948253631591797
			]
		}
	],
	"materials":[
		{
			"doubleSided":true,
			"extensions":{
				"KHR_materials_specular":{
					"specularColorTexture":{
						"index":0
					},
					"specularColorFactor":[
						1.0234904576635981,
						1.031301282650645,
						1.0197744935192075
					]
				}
			},
			"name":"details.014",
			"normalTexture":{
				"index":1
			},
			"occlusionTexture":{
				"index":2,
				"texCoord":1
			},
			"pbrMetallicRoughness":{
				"baseColorTexture":{
					"index":3
				},
				"metallicFactor":0.7985458374023438,
				"metallicRoughnessTexture":{
					"index":2
				}
			}
		}
	],
	"meshes":[
		{
			"name":"shelf.001_details_0.003",
			"primitives":[
				{
					"attributes":{
						"POSITION":0,
						"NORMAL":1,
						"TEXCOORD_0":2,
						"TEXCOORD_1":3,
						"TEXCOORD_2":4,
						"TEXCOORD_3":5
					},
					"indices":6,
					"material":0
				}
			]
		}
	],
	"textures":[
		{
			"sampler":0,
			"source":0
		},
		{
			"sampler":0,
			"source":1
		},
		{
			"sampler":0,
			"source":2
		},
		{
			"sampler":0,
			"source":3
		}
	],
	"images":[
		{
			"bufferView":7,
			"mimeType":"image/png",
			"name":"Image"
		},
		{
			"bufferView":8,
			"mimeType":"image/png",
			"name":"details_normal"
		},
		{
			"bufferView":9,
			"mimeType":"image/png",
			"name":"details_metallicRoughness"
		},
		{
			"bufferView":10,
			"mimeType":"image/png",
			"name":"details_baseColor"
		}
	],
	"accessors":[
		{
			"bufferView":0,
			"componentType":5126,
			"count":776,
			"max":[
				-0.30470752716064453,
				0.2740364670753479,
				1.254892349243164
			],
			"min":[
				-1.7833279371261597,
				-0.25794535875320435,
				-1.2548965215682983
			],
			"type":"VEC3"
		},
		{
			"bufferView":1,
			"componentType":5126,
			"count":776,
			"type":"VEC3"
		},
		{
			"bufferView":2,
			"componentType":5126,
			"count":776,
			"type":"VEC2"
		},
		{
			"bufferView":3,
			"componentType":5126,
			"count":776,
			"type":"VEC2"
		},
		{
			"bufferView":4,
			"componentType":5126,
			"count":776,
			"type":"VEC2"
		},
		{
			"bufferView":5,
			"componentType":5126,
			"count":776,
			"type":"VEC2"
		},
		{
			"bufferView":6,
			"componentType":5123,
			"count":1236,
			"type":"SCALAR"
		}
	],
	"bufferViews":[
		{
			"buffer":0,
			"byteLength":9312,
			"byteOffset":0,
			"target":34962
		},
		{
			"buffer":0,
			"byteLength":9312,
			"byteOffset":9312,
			"target":34962
		},
		{
			"buffer":0,
			"byteLength":6208,
			"byteOffset":18624,
			"target":34962
		},
		{
			"buffer":0,
			"byteLength":6208,
			"byteOffset":24832,
			"target":34962
		},
		{
			"buffer":0,
			"byteLength":6208,
			"byteOffset":31040,
			"target":34962
		},
		{
			"buffer":0,
			"byteLength":6208,
			"byteOffset":37248,
			"target":34962
		},
		{
			"buffer":0,
			"byteLength":2472,
			"byteOffset":43456,
			"target":34963
		},
		{
			"buffer":0,
			"byteLength":147188,
			"byteOffset":45928
		},
		{
			"buffer":0,
			"byteLength":215662,
			"byteOffset":193116
		},
		{
			"buffer":0,
			"byteLength":389750,
			"byteOffset":408780
		},
		{
			"buffer":0,
			"byteLength":70770,
			"byteOffset":798532
		}
	],
	"samplers":[
		{
			"magFilter":9729,
			"minFilter":9987
		}
	],
	"buffers":[
		{
			"byteLength":869304,
			"uri":"data:application/octet-stream;base64,"
		}
	]
}
