{
	"asset":{
		"generator":"Khronos glTF Blender I/O v3.6.27",
		"version":"2.0"
	},
	"scene":0,
	"scenes":[
		{
			"name":"Scene",
			"nodes":[
				4
			]
		}
	],
	"nodes":[
		{
			"mesh":0,
			"name":"Object_2"
		},
		{
			"mesh":1,
			"name":"Object_3"
		},
		{
			"mesh":2,
			"name":"Object_4"
		},
		{
			"children":[
				0,
				1,
				2
			],
			"name":"CCTV.obj.cleaner.materialmerger.gles"
		},
		{
			"children":[
				3
			],
			"name":"Sketchfab_model",
			"rotation":[
				-0.70710688829422,
				0,
				0,
				0.7071066498756409
			],
			"scale":[
				0.019999999552965164,
				0.020000001415610313,
				0.020000001415610313
			]
		}
	],
	"materials":[
		{
			"doubleSided":true,
			"name":"eyetexture",
			"pbrMetallicRoughness":{
				"baseColorTexture":{
					"index":0
				},
				"metallicFactor":0,
				"roughnessFactor":0.9301366806030273
			}
		},
		{
			"doubleSided":true,
			"name":"whiteplastic",
			"pbrMetallicRoughness":{
				"baseColorFactor":[
					0.6620450019836426,
					0.6620450019836426,
					0.6620450019836426,
					1
				],
				"metallicFactor":0,
				"roughnessFactor":0.9584897756576538
			}
		}
	],
	"meshes":[
		{
			"name":"Object_0.006",
			"primitives":[
				{
					"attributes":{
						"POSITION":0,
						"NORMAL":1,
						"TEXCOORD_0":2
					},
					"indices":3,
					"material":0
				}
			]
		},
		{
			"name":"Object_1.008",
			"primitives":[
				{
					"attributes":{
						"POSITION":4,
						"NORMAL":5
					},
					"indices":6,
					"material":1
				}
			]
		},
		{
			"name":"Object_2.008",
			"primitives":[
				{
					"attributes":{
						"POSITION":7,
						"NORMAL":8,
						"TEXCOORD_0":9
					},
					"indices":10,
					"material":1
				}
			]
		}
	],
	"textures":[
		{
			"sampler":0,
			"source":0
		}
	],
	"images":[
		{
			"bufferView":4,
			"mimeType":"image/jpeg",
			"name":"eyetexture_baseColor"
		}
	],
	"accessors":[
		{
			"bufferView":0,
			"componentType":5126,
			"count":33,
			"max":[
				3.0900180339813232,
				-1.6489779949188232,
				-2.5083329677581787
			],
			"min":[
				-3.090017080307007,
				-4.3762078285217285,
				-8.20041275024414
			],
			"type":"VEC3"
		},
		{
			"bufferView":1,
			"componentType":5126,
			"count":33,
			"type":"VEC3"
		},
		{
			"bufferView":2,
			"componentType":5126,
			"count":33,
			"type":"VEC2"
		},
		{
			"bufferView":3,
			"componentType":5123,
			"count":144,
			"type":"SCALAR"
		},
		{
			"bufferView":5,
			"componentType":5126,
			"count":241,
			"max":[
				7,
				7,
				3.111176013946533
			],
			"min":[
				-7,
				-7,
				-5.951016902923584
			],
			"type":"VEC3"
		},
		{
			"bufferView":6,
			"componentType":5126,
			"count":241,
			"type":"VEC3"
		},
		{
			"bufferView":7,
			"componentType":5123,
			"count":882,
			"type":"SCALAR"
		},
		{
			"bufferView":8,
			"componentType":5126,
			"count":129,
			"max":[
				4.48197603225708,
				4.4818549156188965,
				0.333622008562088
			],
			"min":[
				-4.481975078582764,
				-4.153295993804932,
				-8.630088806152344
			],
			"type":"VEC3"
		},
		{
			"bufferView":9,
			"componentType":5126,
			"count":129,
			"type":"VEC3"
		},
		{
			"bufferView":10,
			"componentType":5126,
			"count":129,
			"type":"VEC2"
		},
		{
			"bufferView":11,
			"componentType":5123,
			"count":624,
			"type":"SCALAR"
		}
	],
	"bufferViews":[
		{
			"buffer":0,
			"byteLength":396,
			"byteOffset":0,
			"target":34962
		},
		{
			"buffer":0,
			"byteLength":396,
			"byteOffset":396,
			"target":34962
		},
		{
			"buffer":0,
			"byteLength":264,
			"byteOffset":792,
			"target":34962
		},
		{
			"buffer":0,
			"byteLength":288,
			"byteOffset":1056,
			"target":34963
		},
		{
			"buffer":0,
			"byteLength":21011,
			"byteOffset":1344
		},
		{
			"buffer":0,
			"byteLength":2892,
			"byteOffset":22356,
			"target":34962
		},
		{
			"buffer":0,
			"byteLength":2892,
			"byteOffset":25248,
			"target":34962
		},
		{
			"buffer":0,
			"byteLength":1764,
			"byteOffset":28140,
			"target":34963
		},
		{
			"buffer":0,
			"byteLength":1548,
			"byteOffset":29904,
			"target":34962
		},
		{
			"buffer":0,
			"byteLength":1548,
			"byteOffset":31452,
			"target":34962
		},
		{
			"buffer":0,
			"byteLength":1032,
			"byteOffset":33000,
			"target":34962
		},
		{
			"buffer":0,
			"byteLength":1248,
			"byteOffset":34032,
			"target":34963
		}
	],
	"samplers":[
		{
			"magFilter":9729,
			"minFilter":9987
		}
	],
	"buffers":[
		{
			"byteLength":35280,
			"uri":"data:application/octet-stream;base64,"
		}
	]
}
