{
	"asset":{
		"generator":"Khronos glTF Blender I/O v3.6.27",
		"version":"2.0"
	},
	"extensionsUsed":[
		"KHR_materials_specular"
	],
	"scene":0,
	"scenes":[
		{
			"name":"Scene",
			"nodes":[
				0
			]
		}
	],
	"nodes":[
		{
			"mesh":0,
			"name":"chair.016_desk_0.001",
			"rotation":[
				0,
				-0.0038596484810113907,
				0,
				0.9999925494194031
			],
			"scale":[
				0.00800000037997961,
				0.00800000037997961,
				0.00800000037997961
			],
			"translation":[
				-0.006219113245606422,
				-0.1748969703912735,
				0.0017441809177398682
			]
		}
	],
	"materials":[
		{
			"alphaCutoff":0.5426074266433716,
			"alphaMode":"MASK",
			"doubleSided":true,
			"extensions":{
				"KHR_materials_specular":{
					"specularColorTexture":{
						"index":0
					},
					"specularColorFactor":[
						1.0039216279983518,
						1.0039216279983518,
						1.0686907035199054
					]
				}
			},
			"name":"desk.003",
			"normalTexture":{
				"index":1
			},
			"occlusionTexture":{
				"index":2
			},
			"pbrMetallicRoughness":{
				"baseColorTexture":{
					"index":3
				},
				"metallicFactor":0.6522953510284424,
				"metallicRoughnessTexture":{
					"index":2
				}
			}
		}
	],
	"meshes":[
		{
			"name":"chair.016_desk_0.001",
			"primitives":[
				{
					"attributes":{
						"POSITION":0,
						"NORMAL":1,
						"TEXCOORD_0":2,
						"TEXCOORD_1":3,
						"TEXCOORD_2":4
					},
					"indices":5,
					"material":0
				}
			]
		}
	],
	"textures":[
		{
			"sampler":0,
			"source":0
		},
		{
			"sampler":0,
			"source":1
		},
		{
			"sampler":0,
			"source":2
		},
		{
			"sampler":0,
			"source":3
		}
	],
	"images":[
		{
			"bufferView":6,
			"mimeType":"image/png",
			"name":"Image"
		},
		{
			"bufferView":7,
			"mimeType":"image/png",
			"name":"desk_normal"
		},
		{
			"bufferView":8,
			"mimeType":"image/png",
			"name":"desk_metallicRoughness"
		},
		{
			"bufferView":9,
			"mimeType":"image/png",
			"name":"desk_baseColor"
		}
	],
	"accessors":[
		{
			"bufferView":0,
			"componentType":5126,
			"count":3162,
			"max":[
				45.238582611083984,
				151.49542236328125,
				43.174903869628906
			],
			"min":[
				-45.26193618774414,
				19.620487213134766,
				-53.1695556640625
			],
			"type":"VEC3"
		},
		{
			"bufferView":1,
			"componentType":5126,
			"count":3162,
			"type":"VEC3"
		},
		{
			"bufferView":2,
			"componentType":5126,
			"count":3162,
			"type":"VEC2"
		},
		{
			"bufferView":3,
			"componentType":5126,
			"count":3162,
			"type":"VEC2"
		},
		{
			"bufferView":4,
			"componentType":5126,
			"count":3162,
			"type":"VEC2"
		},
		{
			"bufferView":5,
			"componentType":5123,
			"count":15270,
			"type":"SCALAR"
		}
	],
	"bufferViews":[
		{
			"buffer":0,
			"byteLength":37944,
			"byteOffset":0,
			"target":34962
		},
		{
			"buffer":0,
			"byteLength":37944,
			"byteOffset":37944,
			"target":34962
		},
		{
			"buffer":0,
			"byteLength":25296,
			"byteOffset":75888,
			"target":34962
		},
		{
			"buffer":0,
			"byteLength":25296,
			"byteOffset":101184,
			"target":34962
		},
		{
			"buffer":0,
			"byteLength":25296,
			"byteOffset":126480,
			"target":34962
		},
		{
			"buffer":0,
			"byteLength":30540,
			"byteOffset":151776,
			"target":34963
		},
		{
			"buffer":0,
			"byteLength":67548,
			"byteOffset":182316
		},
		{
			"buffer":0,
			"byteLength":910109,
			"byteOffset":249864
		},
		{
			"buffer":0,
			"byteLength":676434,
			"byteOffset":1159976
		},
		{
			"buffer":0,
			"byteLength":599813,
			"byteOffset":1836412
		}
	],
	"samplers":[
		{
			"magFilter":9729,
			"minFilter":9987
		}
	],
	"buffers":[
		{
			"byteLength":2436228,
			"uri":"data:application/octet-stream;base64,"
		}
	]
}
