{
	"asset":{
		"generator":"Khronos glTF Blender I/O v3.6.27",
		"version":"2.0"
	},
	"scene":0,
	"scenes":[
		{
			"name":"Scene",
			"nodes":[
				4
			]
		}
	],
	"nodes":[
		{
			"mesh":0,
			"name":"OfficeChair_Modern_OfficeChair_Modern_0"
		},
		{
			"children":[
				0
			],
			"name":"OfficeChair_Modern",
			"translation":[
				0,
				44.99999237060547,
				0
			]
		},
		{
			"children":[
				1
			],
			"name":"RootNode"
		},
		{
			"children":[
				2
			],
			"name":"d0f8a9a443db483299d22dd57dbd95fb.fbx",
			"rotation":[
				0.70710688829422,
				0,
				0,
				0.7071066498756409
			]
		},
		{
			"children":[
				3
			],
			"name":"Sketchfab_model",
			"rotation":[
				-0.70710688829422,
				0,
				0,
				0.7071066498756409
			],
			"scale":[
				0.008999999612569809,
				0.008999998681247234,
				0.008999998681247234
			]
		}
	],
	"materials":[
		{
			"doubleSided":true,
			"name":"OfficeChair_Modern.001",
			"normalTexture":{
				"index":0
			},
			"occlusionTexture":{
				"index":1
			},
			"pbrMetallicRoughness":{
				"baseColorTexture":{
					"index":2
				},
				"metallicRoughnessTexture":{
					"index":1
				}
			}
		}
	],
	"meshes":[
		{
			"name":"OfficeChair_Modern_OfficeChair_Modern_0.001",
			"primitives":[
				{
					"attributes":{
						"POSITION":0,
						"NORMAL":1,
						"TEXCOORD_0":2
					},
					"indices":3,
					"material":0
				}
			]
		}
	],
	"textures":[
		{
			"sampler":0,
			"source":0
		},
		{
			"sampler":0,
			"source":1
		},
		{
			"sampler":0,
			"source":2
		}
	],
	"images":[
		{
			"bufferView":4,
			"mimeType":"image/png",
			"name":"OfficeChair_Modern_normal"
		},
		{
			"bufferView":5,
			"mimeType":"image/png",
			"name":"OfficeChair_Modern_metallicRoughness"
		},
		{
			"bufferView":6,
			"mimeType":"image/png",
			"name":"OfficeChair_Modern_baseColor"
		}
	],
	"accessors":[
		{
			"bufferView":0,
			"componentType":5126,
			"count":1651,
			"max":[
				32.668113708496094,
				51.619503021240234,
				34.32714080810547
			],
			"min":[
				-39.373138427734375,
				-44.99574661254883,
				-41.64170837402344
			],
			"type":"VEC3"
		},
		{
			"bufferView":1,
			"componentType":5126,
			"count":1651,
			"type":"VEC3"
		},
		{
			"bufferView":2,
			"componentType":5126,
			"count":1651,
			"type":"VEC2"
		},
		{
			"bufferView":3,
			"componentType":5123,
			"count":3702,
			"type":"SCALAR"
		}
	],
	"bufferViews":[
		{
			"buffer":0,
			"byteLength":19812,
			"byteOffset":0,
			"target":34962
		},
		{
			"buffer":0,
			"byteLength":19812,
			"byteOffset":19812,
			"target":34962
		},
		{
			"buffer":0,
			"byteLength":13208,
			"byteOffset":39624,
			"target":34962
		},
		{
			"buffer":0,
			"byteLength":7404,
			"byteOffset":52832,
			"target":34963
		},
		{
			"buffer":0,
			"byteLength":278603,
			"byteOffset":60236
		},
		{
			"buffer":0,
			"byteLength":184554,
			"byteOffset":338840
		},
		{
			"buffer":0,
			"byteLength":323487,
			"byteOffset":523396
		}
	],
	"samplers":[
		{
			"magFilter":9729,
			"minFilter":9987
		}
	],
	"buffers":[
		{
			"byteLength":846884,
			"uri":"data:application/octet-stream;base64,"
		}
	]
}
