{
	"asset":{
		"generator":"Khronos glTF Blender I/O v3.6.27",
		"version":"2.0"
	},
	"scene":0,
	"scenes":[
		{
			"name":"Scene",
			"nodes":[
				8
			]
		}
	],
	"nodes":[
		{
			"mesh":0,
			"name":"DoorWindow_Border_0"
		},
		{
			"mesh":1,
			"name":"DoorWindow_Glass_0"
		},
		{
			"children":[
				0,
				1
			],
			"name":"DoorWindow",
			"rotation":[
				0.5000001192092896,
				-0.49999988079071045,
				0.49999988079071045,
				0.5000001192092896
			],
			"scale":[
				14.040534019470215,
				254.8831024169922,
				626.2840576171875
			],
			"translation":[
				-259.30462646484375,
				-2.9701948165893555,
				11.388875961303711
			]
		},
		{
			"mesh":2,
			"name":"RightDoor_Border_0"
		},
		{
			"mesh":3,
			"name":"RightDoor_Glass_0"
		},
		{
			"children":[
				3,
				4
			],
			"name":"RightDoor",
			"rotation":[
				0.5000001192092896,
				-0.49999988079071045,
				0.49999988079071045,
				0.5000001192092896
			],
			"scale":[
				14.040534019470215,
				254.8831024169922,
				626.2840576171875
			],
			"translation":[
				-259.30462646484375,
				-2.9701948165893555,
				11.388875961303711
			]
		},
		{
			"children":[
				2,
				5
			],
			"name":"RootNode"
		},
		{
			"children":[
				6
			],
			"name":"32f770ed0ab149888de89b0e60da6cf1.fbx",
			"rotation":[
				0.70710688829422,
				0,
				0,
				0.7071066498756409
			],
			"scale":[
				0.010000000707805157,
				0.010000000707805157,
				0.010000000707805157
			]
		},
		{
			"children":[
				7
			],
			"name":"Sketchfab_model",
			"rotation":[
				-0.70710688829422,
				0,
				0,
				0.7071066498756409
			],
			"scale":[
				0.20000000298023224,
				0.20000003278255463,
				0.20000003278255463
			]
		}
	],
	"materials":[
		{
			"doubleSided":true,
			"name":"Border.002",
			"pbrMetallicRoughness":{
				"baseColorFactor":[
					0.037097107619047165,
					0.037097107619047165,
					0.037097107619047165,
					1
				]
			}
		},
		{
			"alphaMode":"BLEND",
			"name":"Glass.003",
			"pbrMetallicRoughness":{
				"baseColorFactor":[
					1,
					1,
					1,
					0
				],
				"metallicFactor":0
			}
		}
	],
	"meshes":[
		{
			"name":"DoorWindow_Border_0.002",
			"primitives":[
				{
					"attributes":{
						"POSITION":0,
						"NORMAL":1,
						"TEXCOORD_0":2
					},
					"indices":3,
					"material":0
				}
			]
		},
		{
			"name":"DoorWindow_Glass_0.002",
			"primitives":[
				{
					"attributes":{
						"POSITION":4,
						"NORMAL":5,
						"TEXCOORD_0":6
					},
					"indices":7,
					"material":1
				}
			]
		},
		{
			"name":"RightDoor_Border_0.002",
			"primitives":[
				{
					"attributes":{
						"POSITION":8,
						"NORMAL":9,
						"TEXCOORD_0":10
					},
					"indices":11,
					"material":0
				}
			]
		},
		{
			"name":"RightDoor_Glass_0.002",
			"primitives":[
				{
					"attributes":{
						"POSITION":12,
						"NORMAL":13,
						"TEXCOORD_0":14
					},
					"indices":15,
					"material":1
				}
			]
		}
	],
	"accessors":[
		{
			"bufferView":0,
			"componentType":5126,
			"count":2540,
			"max":[
				0.9999874234199524,
				1,
				-1.0145647525787354
			],
			"min":[
				-2.0266425609588623,
				-1,
				-1.6689239740371704
			],
			"type":"VEC3"
		},
		{
			"bufferView":1,
			"componentType":5126,
			"count":2540,
			"type":"VEC3"
		},
		{
			"bufferView":2,
			"componentType":5126,
			"count":2540,
			"type":"VEC2"
		},
		{
			"bufferView":3,
			"componentType":5123,
			"count":3411,
			"type":"SCALAR"
		},
		{
			"bufferView":4,
			"componentType":5126,
			"count":8,
			"max":[
				0.2578030824661255,
				0.7736050486564636,
				-1.0792412757873535
			],
			"min":[
				-0.2578417956829071,
				-0.7736050486564636,
				-1.585852861404419
			],
			"type":"VEC3"
		},
		{
			"bufferView":5,
			"componentType":5126,
			"count":8,
			"type":"VEC3"
		},
		{
			"bufferView":6,
			"componentType":5126,
			"count":8,
			"type":"VEC2"
		},
		{
			"bufferView":7,
			"componentType":5123,
			"count":12,
			"type":"SCALAR"
		},
		{
			"bufferView":8,
			"componentType":5126,
			"count":355,
			"max":[
				4.247453689575195,
				1,
				1
			],
			"min":[
				-4.247452259063721,
				-1,
				-1.0145647525787354
			],
			"type":"VEC3"
		},
		{
			"bufferView":9,
			"componentType":5126,
			"count":355,
			"type":"VEC3"
		},
		{
			"bufferView":10,
			"componentType":5126,
			"count":355,
			"type":"VEC2"
		},
		{
			"bufferView":11,
			"componentType":5123,
			"count":588,
			"type":"SCALAR"
		},
		{
			"bufferView":12,
			"componentType":5126,
			"count":24,
			"max":[
				0.3333480656147003,
				0.7797340154647827,
				0.9042202830314636
			],
			"min":[
				-0.3333480656147003,
				-0.7797340154647827,
				-0.9042202830314636
			],
			"type":"VEC3"
		},
		{
			"bufferView":13,
			"componentType":5126,
			"count":24,
			"type":"VEC3"
		},
		{
			"bufferView":14,
			"componentType":5126,
			"count":24,
			"type":"VEC2"
		},
		{
			"bufferView":15,
			"componentType":5123,
			"count":36,
			"type":"SCALAR"
		}
	],
	"bufferViews":[
		{
			"buffer":0,
			"byteLength":30480,
			"byteOffset":0,
			"target":34962
		},
		{
			"buffer":0,
			"byteLength":30480,
			"byteOffset":30480,
			"target":34962
		},
		{
			"buffer":0,
			"byteLength":20320,
			"byteOffset":60960,
			"target":34962
		},
		{
			"buffer":0,
			"byteLength":6822,
			"byteOffset":81280,
			"target":34963
		},
		{
			"buffer":0,
			"byteLength":96,
			"byteOffset":88104,
			"target":34962
		},
		{
			"buffer":0,
			"byteLength":96,
			"byteOffset":88200,
			"target":34962
		},
		{
			"buffer":0,
			"byteLength":64,
			"byteOffset":88296,
			"target":34962
		},
		{
			"buffer":0,
			"byteLength":24,
			"byteOffset":88360,
			"target":34963
		},
		{
			"buffer":0,
			"byteLength":4260,
			"byteOffset":88384,
			"target":34962
		},
		{
			"buffer":0,
			"byteLength":4260,
			"byteOffset":92644,
			"target":34962
		},
		{
			"buffer":0,
			"byteLength":2840,
			"byteOffset":96904,
			"target":34962
		},
		{
			"buffer":0,
			"byteLength":1176,
			"byteOffset":99744,
			"target":34963
		},
		{
			"buffer":0,
			"byteLength":288,
			"byteOffset":100920,
			"target":34962
		},
		{
			"buffer":0,
			"byteLength":288,
			"byteOffset":101208,
			"target":34962
		},
		{
			"buffer":0,
			"byteLength":192,
			"byteOffset":101496,
			"target":34962
		},
		{
			"buffer":0,
			"byteLength":72,
			"byteOffset":101688,
			"target":34963
		}
	],
	"buffers":[
		{
			"byteLength":101760,
			"uri":"data:application/octet-stream;base64,"
		}
	]
}
