{
	"asset":{
		"generator":"Khronos glTF Blender I/O v3.6.27",
		"version":"2.0"
	},
	"extensionsUsed":[
		"KHR_materials_clearcoat",
		"KHR_materials_transmission"
	],
	"scene":0,
	"scenes":[
		{
			"name":"Scene",
			"nodes":[
				5
			]
		}
	],
	"nodes":[
		{
			"mesh":0,
			"name":"Glass Door.015_Glass_0"
		},
		{
			"mesh":1,
			"name":"Glass Door.015_Metal_0"
		},
		{
			"children":[
				0,
				1
			],
			"name":"Glass Door.015",
			"rotation":[
				-0.70710688829422,
				0,
				0,
				0.7071066498756409
			],
			"scale":[
				100,
				99.99999237060547,
				99.99999237060547
			],
			"translation":[
				33.28173828125,
				0.4391256272792816,
				-0.9135741591453552
			]
		},
		{
			"children":[
				2
			],
			"name":"RootNode"
		},
		{
			"children":[
				3
			],
			"name":"adeb93b16b1343ce9259f3bc30ece086.fbx",
			"rotation":[
				0.70710688829422,
				0,
				0,
				0.7071066498756409
			],
			"scale":[
				0.009999999776482582,
				0.010000000707805157,
				0.010000000707805157
			]
		},
		{
			"children":[
				4
			],
			"name":"Sketchfab_model",
			"rotation":[
				-0.70710688829422,
				0,
				0,
				0.7071066498756409
			],
			"scale":[
				1.2999999523162842,
				1.3000000715255737,
				1.3000000715255737
			]
		}
	],
	"materials":[
		{
			"alphaMode":"BLEND",
			"doubleSided":true,
			"extensions":{
				"KHR_materials_clearcoat":{
					"clearcoatFactor":1,
					"clearcoatRoughnessFactor":0.03999999910593033
				},
				"KHR_materials_transmission":{
					"transmissionFactor":0.7672433853149414
				}
			},
			"name":"Glass",
			"pbrMetallicRoughness":{
				"baseColorFactor":[
					0.800000011920929,
					0.800000011920929,
					0.800000011920929,
					0.25
				],
				"metallicFactor":0,
				"roughnessFactor":0
			}
		},
		{
			"doubleSided":true,
			"name":"Metal",
			"pbrMetallicRoughness":{
				"baseColorFactor":[
					0.800000011920929,
					0.800000011920929,
					0.800000011920929,
					1
				],
				"roughnessFactor":0.07410363107919693
			}
		}
	],
	"meshes":[
		{
			"name":"Glass Door.015_Glass_0",
			"primitives":[
				{
					"attributes":{
						"POSITION":0,
						"NORMAL":1,
						"TEXCOORD_0":2
					},
					"indices":3,
					"material":0
				}
			]
		},
		{
			"name":"Glass Door.015_Metal_0",
			"primitives":[
				{
					"attributes":{
						"POSITION":4,
						"NORMAL":5,
						"TEXCOORD_0":6
					},
					"indices":7,
					"material":1
				}
			]
		}
	],
	"accessors":[
		{
			"bufferView":0,
			"componentType":5126,
			"count":100,
			"max":[
				0.050364911556243896,
				0.004651754163205624,
				2.0651214122772217
			],
			"min":[
				-0.8276923298835754,
				-0.004650445189327002,
				0.008182168006896973
			],
			"type":"VEC3"
		},
		{
			"bufferView":1,
			"componentType":5126,
			"count":100,
			"type":"VEC3"
		},
		{
			"bufferView":2,
			"componentType":5126,
			"count":100,
			"type":"VEC2"
		},
		{
			"bufferView":3,
			"componentType":5123,
			"count":132,
			"type":"SCALAR"
		},
		{
			"bufferView":4,
			"componentType":5126,
			"count":3522,
			"max":[
				0.05863076448440552,
				0.0898343175649643,
				2.0804338455200195
			],
			"min":[
				-0.8272138237953186,
				-0.09201523661613464,
				0
			],
			"type":"VEC3"
		},
		{
			"bufferView":5,
			"componentType":5126,
			"count":3522,
			"type":"VEC3"
		},
		{
			"bufferView":6,
			"componentType":5126,
			"count":3522,
			"type":"VEC2"
		},
		{
			"bufferView":7,
			"componentType":5123,
			"count":10392,
			"type":"SCALAR"
		}
	],
	"bufferViews":[
		{
			"buffer":0,
			"byteLength":1200,
			"byteOffset":0,
			"target":34962
		},
		{
			"buffer":0,
			"byteLength":1200,
			"byteOffset":1200,
			"target":34962
		},
		{
			"buffer":0,
			"byteLength":800,
			"byteOffset":2400,
			"target":34962
		},
		{
			"buffer":0,
			"byteLength":264,
			"byteOffset":3200,
			"target":34963
		},
		{
			"buffer":0,
			"byteLength":42264,
			"byteOffset":3464,
			"target":34962
		},
		{
			"buffer":0,
			"byteLength":42264,
			"byteOffset":45728,
			"target":34962
		},
		{
			"buffer":0,
			"byteLength":28176,
			"byteOffset":87992,
			"target":34962
		},
		{
			"buffer":0,
			"byteLength":20784,
			"byteOffset":116168,
			"target":34963
		}
	],
	"buffers":[
		{
			"byteLength":136952,
			"uri":"data:application/octet-stream;base64,"
		}
	]
}
