{
	"asset":{
		"generator":"Khronos glTF Blender I/O v3.6.27",
		"version":"2.0"
	},
	"scene":0,
	"scenes":[
		{
			"name":"Scene",
			"nodes":[
				16
			]
		}
	],
	"nodes":[
		{
			"mesh":0,
			"name":"Object_4"
		},
		{
			"children":[
				0
			],
			"name":"316313476cfe2ddee7782e7855b64367_0",
			"rotation":[
				0.5,
				-0.5,
				0.5,
				0.5
			],
			"scale":[
				0.1416505128145218,
				0.1416505128145218,
				0.1416505128145218
			],
			"translation":[
				-0.1404714733362198,
				1.4173099994659424,
				-0.29887786507606506
			]
		},
		{
			"mesh":1,
			"name":"Object_13"
		},
		{
			"children":[
				2
			],
			"name":"c790c7f50dab9e8a5c5f82b94b61fbc8_4",
			"rotation":[
				-0.49999988079071045,
				0.5000001788139343,
				0.49999988079071045,
				0.5000002384185791
			],
			"scale":[
				-0.0817946046590805,
				-0.0817946046590805,
				-0.0817946046590805
			],
			"translation":[
				-0.1404714584350586,
				1.0973165035247803,
				-0.29887789487838745
			]
		},
		{
			"mesh":2,
			"name":"Object_8"
		},
		{
			"mesh":3,
			"name":"Object_9"
		},
		{
			"children":[
				4,
				5
			],
			"name":"Door Handle Mechanism_2",
			"translation":[
				-0.14026834070682526,
				0.8815144300460815,
				0.0644344761967659
			]
		},
		{
			"mesh":4,
			"name":"Object_6"
		},
		{
			"children":[
				7
			],
			"name":"Door Handle_1",
			"translation":[
				-0.14026834070682526,
				0.8815144300460815,
				0.0644344761967659
			]
		},
		{
			"mesh":5,
			"name":"Object_11"
		},
		{
			"children":[
				9
			],
			"name":"Door Metal guard_3",
			"scale":[
				-0.10379207879304886,
				-0.10379207879304886,
				-0.10379207879304886
			],
			"translation":[
				-0.13825131952762604,
				0.2942326068878174,
				0.045147720724344254
			]
		},
		{
			"mesh":6,
			"name":"Object_15"
		},
		{
			"mesh":7,
			"name":"Object_16"
		},
		{
			"children":[
				11,
				12
			],
			"name":"Rear Doors_5",
			"scale":[
				0.4815491735935211,
				0.4815492033958435,
				0.4815492033958435
			],
			"translation":[
				-0.11054135113954544,
				1.1231863498687744,
				0.060473740100860596
			]
		},
		{
			"children":[
				1,
				3,
				6,
				8,
				10,
				13
			],
			"name":"GLTF_SceneRootNode",
			"rotation":[
				0.70710688829422,
				0,
				0,
				0.7071066498756409
			]
		},
		{
			"children":[
				14
			],
			"name":"root"
		},
		{
			"children":[
				15
			],
			"name":"Sketchfab_model",
			"rotation":[
				-0.5000001192092896,
				0.5,
				0.5,
				0.5000000596046448
			],
			"scale":[
				1.8000001907348633,
				1.8000001907348633,
				1.8000001907348633
			]
		}
	],
	"materials":[
		{
			"doubleSided":true,
			"name":"316313476cfe2ddee7782e7855b64367.001",
			"pbrMetallicRoughness":{
				"baseColorTexture":{
					"index":0
				},
				"metallicFactor":0,
				"roughnessFactor":0.12727299332618713
			}
		},
		{
			"doubleSided":true,
			"name":"c790c7f50dab9e8a5c5f82b94b61fbc8.001",
			"pbrMetallicRoughness":{
				"baseColorTexture":{
					"index":1
				},
				"metallicFactor":0,
				"roughnessFactor":0.09545449912548065
			}
		},
		{
			"doubleSided":true,
			"name":"Handle_mech.001",
			"pbrMetallicRoughness":{
				"baseColorFactor":[
					0.15230999886989594,
					0.15230999886989594,
					0.15230999886989594,
					1
				],
				"metallicFactor":0,
				"roughnessFactor":0.5975670218467712
			}
		},
		{
			"doubleSided":true,
			"name":"Metal_Guard.002",
			"pbrMetallicRoughness":{
				"baseColorFactor":[
					0.3417455852031708,
					0.2923799455165863,
					0.06229173764586449,
					1
				],
				"metallicFactor":0.7313308119773865,
				"metallicRoughnessTexture":{
					"index":2
				},
				"roughnessFactor":0.2205962836742401
			}
		},
		{
			"doubleSided":true,
			"name":"Chrome_Handle.001",
			"pbrMetallicRoughness":{
				"baseColorFactor":[
					0.0732354000210762,
					0.0732354000210762,
					0.0732354000210762,
					1
				],
				"metallicFactor":0,
				"roughnessFactor":0.027272699400782585
			}
		},
		{
			"doubleSided":true,
			"name":"Metal_Guard.003",
			"pbrMetallicRoughness":{
				"baseColorTexture":{
					"index":3
				},
				"metallicFactor":0,
				"metallicRoughnessTexture":{
					"index":4
				},
				"roughnessFactor":0.7009299397468567
			}
		},
		{
			"doubleSided":true,
			"name":"Rear_Doors.002",
			"pbrMetallicRoughness":{
				"baseColorFactor":[
					0.01600847952067852,
					0.018704943358898163,
					0.012511308304965496,
					1
				],
				"metallicFactor":0,
				"roughnessFactor":0.5651159882545471
			}
		},
		{
			"doubleSided":true,
			"name":"Material.010",
			"pbrMetallicRoughness":{
				"baseColorFactor":[
					0.3206165134906769,
					0.3206165134906769,
					0.3206165134906769,
					1
				],
				"metallicFactor":0,
				"roughnessFactor":0.23636400699615479
			}
		}
	],
	"meshes":[
		{
			"name":"Object_0.005",
			"primitives":[
				{
					"attributes":{
						"POSITION":0,
						"NORMAL":1,
						"TEXCOORD_0":2
					},
					"indices":3,
					"material":0
				}
			]
		},
		{
			"name":"Object_5.003",
			"primitives":[
				{
					"attributes":{
						"POSITION":4,
						"NORMAL":5,
						"TEXCOORD_0":6
					},
					"indices":3,
					"material":1
				}
			]
		},
		{
			"name":"Object_2.006",
			"primitives":[
				{
					"attributes":{
						"POSITION":7,
						"NORMAL":8,
						"TEXCOORD_0":9
					},
					"indices":10,
					"material":2
				}
			]
		},
		{
			"name":"Object_3.006",
			"primitives":[
				{
					"attributes":{
						"POSITION":11,
						"NORMAL":12,
						"TEXCOORD_0":13,
						"TEXCOORD_1":14,
						"TEXCOORD_2":15,
						"TEXCOORD_3":16
					},
					"indices":17,
					"material":3
				}
			]
		},
		{
			"name":"Object_1.006",
			"primitives":[
				{
					"attributes":{
						"POSITION":18,
						"NORMAL":19,
						"TEXCOORD_0":20
					},
					"indices":21,
					"material":4
				}
			]
		},
		{
			"name":"Object_4.006",
			"primitives":[
				{
					"attributes":{
						"POSITION":22,
						"NORMAL":23,
						"TEXCOORD_0":24,
						"TEXCOORD_1":25,
						"TEXCOORD_2":26,
						"TEXCOORD_3":27
					},
					"indices":28,
					"material":5
				}
			]
		},
		{
			"name":"Object_6.003",
			"primitives":[
				{
					"attributes":{
						"POSITION":29,
						"NORMAL":30,
						"TEXCOORD_0":31
					},
					"indices":32,
					"material":6
				}
			]
		},
		{
			"name":"Object_7.003",
			"primitives":[
				{
					"attributes":{
						"POSITION":33,
						"NORMAL":34,
						"TEXCOORD_0":35
					},
					"indices":36,
					"material":7
				}
			]
		}
	],
	"textures":[
		{
			"sampler":0,
			"source":0
		},
		{
			"sampler":0,
			"source":1
		},
		{
			"sampler":1,
			"source":2
		},
		{
			"sampler":1,
			"source":3
		},
		{
			"sampler":1,
			"source":4
		}
	],
	"images":[
		{
			"bufferView":4,
			"mimeType":"image/png",
			"name":"316313476cfe2ddee7782e7855b64367_baseColor"
		},
		{
			"bufferView":8,
			"mimeType":"image/png",
			"name":"c790c7f50dab9e8a5c5f82b94b61fbc8_baseColor"
		},
		{
			"bufferView":20,
			"mimeType":"image/png",
			"name":"Metal_Guard.001_metallicRoughness"
		},
		{
			"bufferView":32,
			"mimeType":"image/png",
			"name":"Metal_Guard_baseColor"
		},
		{
			"bufferView":33,
			"mimeType":"image/png",
			"name":"Metal_Guard_metallicRoughness"
		}
	],
	"accessors":[
		{
			"bufferView":0,
			"componentType":5126,
			"count":8,
			"max":[
				5.908003807067871,
				0,
				0.5
			],
			"min":[
				-0.9980040192604065,
				0,
				-0.5
			],
			"type":"VEC3"
		},
		{
			"bufferView":1,
			"componentType":5126,
			"count":8,
			"type":"VEC3"
		},
		{
			"bufferView":2,
			"componentType":5126,
			"count":8,
			"type":"VEC2"
		},
		{
			"bufferView":3,
			"componentType":5123,
			"count":12,
			"type":"SCALAR"
		},
		{
			"bufferView":5,
			"componentType":5126,
			"count":8,
			"max":[
				9.953679084777832,
				0,
				0.5
			],
			"min":[
				-1.4836795330047607,
				0,
				-0.5
			],
			"type":"VEC3"
		},
		{
			"bufferView":6,
			"componentType":5126,
			"count":8,
			"type":"VEC3"
		},
		{
			"bufferView":7,
			"componentType":5126,
			"count":8,
			"type":"VEC2"
		},
		{
			"bufferView":9,
			"componentType":5126,
			"count":6243,
			"max":[
				0.02550053596496582,
				0.9080365896224976,
				0.6077200770378113
			],
			"min":[
				-0.07959112524986267,
				-0.6271860599517822,
				-0.656210720539093
			],
			"type":"VEC3"
		},
		{
			"bufferView":10,
			"componentType":5126,
			"count":6243,
			"type":"VEC3"
		},
		{
			"bufferView":11,
			"componentType":5126,
			"count":6243,
			"type":"VEC2"
		},
		{
			"bufferView":12,
			"componentType":5123,
			"count":10188,
			"type":"SCALAR"
		},
		{
			"bufferView":13,
			"componentType":5126,
			"count":32,
			"max":[
				-0.0036939959973096848,
				0.18976359069347382,
				-0.024574339389801025
			],
			"min":[
				-0.013766253367066383,
				0.16739442944526672,
				-0.07041388750076294
			],
			"type":"VEC3"
		},
		{
			"bufferView":14,
			"componentType":5126,
			"count":32,
			"type":"VEC3"
		},
		{
			"bufferView":15,
			"componentType":5126,
			"count":32,
			"type":"VEC2"
		},
		{
			"bufferView":16,
			"componentType":5126,
			"count":32,
			"type":"VEC2"
		},
		{
			"bufferView":17,
			"componentType":5126,
			"count":32,
			"type":"VEC2"
		},
		{
			"bufferView":18,
			"componentType":5126,
			"count":32,
			"type":"VEC2"
		},
		{
			"bufferView":19,
			"componentType":5123,
			"count":54,
			"type":"SCALAR"
		},
		{
			"bufferView":21,
			"componentType":5126,
			"count":350,
			"max":[
				-0.04811794310808182,
				0.11760774999856949,
				0.6001449227333069
			],
			"min":[
				-0.06886213272809982,
				0.09589941799640656,
				-0.6486355662345886
			],
			"type":"VEC3"
		},
		{
			"bufferView":22,
			"componentType":5126,
			"count":350,
			"type":"VEC3"
		},
		{
			"bufferView":23,
			"componentType":5126,
			"count":350,
			"type":"VEC2"
		},
		{
			"bufferView":24,
			"componentType":5123,
			"count":888,
			"type":"SCALAR"
		},
		{
			"bufferView":25,
			"componentType":5126,
			"count":48,
			"max":[
				0.040432050824165344,
				0.2504604160785675,
				6.369984149932861
			],
			"min":[
				-0.017153441905975342,
				-1.0381770133972168,
				-6.274433612823486
			],
			"type":"VEC3"
		},
		{
			"bufferView":26,
			"componentType":5126,
			"count":48,
			"type":"VEC3"
		},
		{
			"bufferView":27,
			"componentType":5126,
			"count":48,
			"type":"VEC2"
		},
		{
			"bufferView":28,
			"componentType":5126,
			"count":48,
			"type":"VEC2"
		},
		{
			"bufferView":29,
			"componentType":5126,
			"count":48,
			"type":"VEC2"
		},
		{
			"bufferView":30,
			"componentType":5126,
			"count":48,
			"type":"VEC2"
		},
		{
			"bufferView":31,
			"componentType":5123,
			"count":72,
			"type":"SCALAR"
		},
		{
			"bufferView":34,
			"componentType":5126,
			"count":366,
			"max":[
				4.649162292480469e-06,
				1.431176781654358,
				1.4669257402420044
			],
			"min":[
				-0.11436842381954193,
				-1.824225664138794,
				-1.5511730909347534
			],
			"type":"VEC3"
		},
		{
			"bufferView":35,
			"componentType":5126,
			"count":366,
			"type":"VEC3"
		},
		{
			"bufferView":36,
			"componentType":5126,
			"count":366,
			"type":"VEC2"
		},
		{
			"bufferView":37,
			"componentType":5123,
			"count":588,
			"type":"SCALAR"
		},
		{
			"bufferView":38,
			"componentType":5126,
			"count":20,
			"max":[
				-0.023099267855286598,
				1.3736343383789062,
				0.032254867255687714
			],
			"min":[
				-0.06911153346300125,
				-1.824225664138794,
				-0.03071644715964794
			],
			"type":"VEC3"
		},
		{
			"bufferView":39,
			"componentType":5126,
			"count":20,
			"type":"VEC3"
		},
		{
			"bufferView":40,
			"componentType":5126,
			"count":20,
			"type":"VEC2"
		},
		{
			"bufferView":41,
			"componentType":5123,
			"count":30,
			"type":"SCALAR"
		}
	],
	"bufferViews":[
		{
			"buffer":0,
			"byteLength":96,
			"byteOffset":0,
			"target":34962
		},
		{
			"buffer":0,
			"byteLength":96,
			"byteOffset":96,
			"target":34962
		},
		{
			"buffer":0,
			"byteLength":64,
			"byteOffset":192,
			"target":34962
		},
		{
			"buffer":0,
			"byteLength":24,
			"byteOffset":256,
			"target":34963
		},
		{
			"buffer":0,
			"byteLength":66832,
			"byteOffset":280
		},
		{
			"buffer":0,
			"byteLength":96,
			"byteOffset":67112,
			"target":34962
		},
		{
			"buffer":0,
			"byteLength":96,
			"byteOffset":67208,
			"target":34962
		},
		{
			"buffer":0,
			"byteLength":64,
			"byteOffset":67304,
			"target":34962
		},
		{
			"buffer":0,
			"byteLength":86154,
			"byteOffset":67368
		},
		{
			"buffer":0,
			"byteLength":74916,
			"byteOffset":153524,
			"target":34962
		},
		{
			"buffer":0,
			"byteLength":74916,
			"byteOffset":228440,
			"target":34962
		},
		{
			"buffer":0,
			"byteLength":49944,
			"byteOffset":303356,
			"target":34962
		},
		{
			"buffer":0,
			"byteLength":20376,
			"byteOffset":353300,
			"target":34963
		},
		{
			"buffer":0,
			"byteLength":384,
			"byteOffset":373676,
			"target":34962
		},
		{
			"buffer":0,
			"byteLength":384,
			"byteOffset":374060,
			"target":34962
		},
		{
			"buffer":0,
			"byteLength":256,
			"byteOffset":374444,
			"target":34962
		},
		{
			"buffer":0,
			"byteLength":256,
			"byteOffset":374700,
			"target":34962
		},
		{
			"buffer":0,
			"byteLength":256,
			"byteOffset":374956,
			"target":34962
		},
		{
			"buffer":0,
			"byteLength":256,
			"byteOffset":375212,
			"target":34962
		},
		{
			"buffer":0,
			"byteLength":108,
			"byteOffset":375468,
			"target":34963
		},
		{
			"buffer":0,
			"byteLength":400024,
			"byteOffset":375576
		},
		{
			"buffer":0,
			"byteLength":4200,
			"byteOffset":775600,
			"target":34962
		},
		{
			"buffer":0,
			"byteLength":4200,
			"byteOffset":779800,
			"target":34962
		},
		{
			"buffer":0,
			"byteLength":2800,
			"byteOffset":784000,
			"target":34962
		},
		{
			"buffer":0,
			"byteLength":1776,
			"byteOffset":786800,
			"target":34963
		},
		{
			"buffer":0,
			"byteLength":576,
			"byteOffset":788576,
			"target":34962
		},
		{
			"buffer":0,
			"byteLength":576,
			"byteOffset":789152,
			"target":34962
		},
		{
			"buffer":0,
			"byteLength":384,
			"byteOffset":789728,
			"target":34962
		},
		{
			"buffer":0,
			"byteLength":384,
			"byteOffset":790112,
			"target":34962
		},
		{
			"buffer":0,
			"byteLength":384,
			"byteOffset":790496,
			"target":34962
		},
		{
			"buffer":0,
			"byteLength":384,
			"byteOffset":790880,
			"target":34962
		},
		{
			"buffer":0,
			"byteLength":144,
			"byteOffset":791264,
			"target":34963
		},
		{
			"buffer":0,
			"byteLength":994634,
			"byteOffset":791408
		},
		{
			"buffer":0,
			"byteLength":596,
			"byteOffset":1786044
		},
		{
			"buffer":0,
			"byteLength":4392,
			"byteOffset":1786640,
			"target":34962
		},
		{
			"buffer":0,
			"byteLength":4392,
			"byteOffset":1791032,
			"target":34962
		},
		{
			"buffer":0,
			"byteLength":2928,
			"byteOffset":1795424,
			"target":34962
		},
		{
			"buffer":0,
			"byteLength":1176,
			"byteOffset":1798352,
			"target":34963
		},
		{
			"buffer":0,
			"byteLength":240,
			"byteOffset":1799528,
			"target":34962
		},
		{
			"buffer":0,
			"byteLength":240,
			"byteOffset":1799768,
			"target":34962
		},
		{
			"buffer":0,
			"byteLength":160,
			"byteOffset":1800008,
			"target":34962
		},
		{
			"buffer":0,
			"byteLength":60,
			"byteOffset":1800168,
			"target":34963
		}
	],
	"samplers":[
		{
			"magFilter":9729,
			"minFilter":9987,
			"wrapS":33071,
			"wrapT":33071
		},
		{
			"magFilter":9729,
			"minFilter":9987
		}
	],
	"buffers":[
		{
			"byteLength":1800228,
			"uri":"data:application/octet-stream;base64,"
		}
	]
}
