{
	"asset":{
		"generator":"Khronos glTF Blender I/O v3.6.27",
		"version":"2.0"
	},
	"extensionsUsed":[
		"KHR_materials_specular"
	],
	"scene":0,
	"scenes":[
		{
			"name":"Scene",
			"nodes":[
				4
			]
		}
	],
	"nodes":[
		{
			"mesh":0,
			"name":"node_Couch_9592.003_details_0"
		},
		{
			"children":[
				0
			],
			"name":"node_Couch_9592.003",
			"rotation":[
				-0.004831826314330101,
				0.7070900201797485,
				0.7070904970169067,
				0.004831879399716854
			],
			"scale":[
				100.00003051757812,
				100.00000762939453,
				100.00001525878906
			],
			"translation":[
				25.509519577026367,
				47.3570556640625,
				-8.955184936523438
			]
		},
		{
			"children":[
				1
			],
			"name":"RootNode"
		},
		{
			"children":[
				2
			],
			"name":"7da935e861424c37b981a165bd383bac.fbx",
			"rotation":[
				0.70710688829422,
				0,
				0,
				0.7071066498756409
			],
			"scale":[
				0.009999999776482582,
				0.009999997913837433,
				0.009999997913837433
			]
		},
		{
			"children":[
				3
			],
			"name":"Sketchfab_model",
			"rotation":[
				-0.70710688829422,
				0,
				0,
				0.7071066498756409
			]
		}
	],
	"materials":[
		{
			"doubleSided":true,
			"extensions":{
				"KHR_materials_specular":{
					"specularColorTexture":{
						"index":0
					},
					"specularColorFactor":[
						1.007936523252283,
						1.006420282032593,
						1.00661207711164
					]
				}
			},
			"name":"details.012",
			"normalTexture":{
				"index":1
			},
			"occlusionTexture":{
				"index":2,
				"texCoord":1
			},
			"pbrMetallicRoughness":{
				"baseColorTexture":{
					"index":3
				},
				"metallicFactor":0.7985458374023438,
				"metallicRoughnessTexture":{
					"index":2
				}
			}
		}
	],
	"meshes":[
		{
			"name":"node_Couch_9592.003_details_0.002",
			"primitives":[
				{
					"attributes":{
						"POSITION":0,
						"NORMAL":1,
						"TEXCOORD_0":2,
						"TEXCOORD_1":3,
						"TEXCOORD_2":4,
						"TEXCOORD_3":5
					},
					"indices":6,
					"material":0
				}
			]
		}
	],
	"textures":[
		{
			"sampler":0,
			"source":0
		},
		{
			"sampler":0,
			"source":1
		},
		{
			"sampler":0,
			"source":2
		},
		{
			"sampler":0,
			"source":3
		}
	],
	"images":[
		{
			"bufferView":7,
			"mimeType":"image/png",
			"name":"Image"
		},
		{
			"bufferView":8,
			"mimeType":"image/png",
			"name":"details_normal"
		},
		{
			"bufferView":9,
			"mimeType":"image/png",
			"name":"details_metallicRoughness"
		},
		{
			"bufferView":10,
			"mimeType":"image/png",
			"name":"details_baseColor"
		}
	],
	"accessors":[
		{
			"bufferView":0,
			"componentType":5126,
			"count":579,
			"max":[
				1.0635615587234497,
				0.5341042280197144,
				0.40022706985473633
			],
			"min":[
				-0.5093775391578674,
				-0.3413430154323578,
				-0.4609992504119873
			],
			"type":"VEC3"
		},
		{
			"bufferView":1,
			"componentType":5126,
			"count":579,
			"type":"VEC3"
		},
		{
			"bufferView":2,
			"componentType":5126,
			"count":579,
			"type":"VEC2"
		},
		{
			"bufferView":3,
			"componentType":5126,
			"count":579,
			"type":"VEC2"
		},
		{
			"bufferView":4,
			"componentType":5126,
			"count":579,
			"type":"VEC2"
		},
		{
			"bufferView":5,
			"componentType":5126,
			"count":579,
			"type":"VEC2"
		},
		{
			"bufferView":6,
			"componentType":5123,
			"count":1935,
			"type":"SCALAR"
		}
	],
	"bufferViews":[
		{
			"buffer":0,
			"byteLength":6948,
			"byteOffset":0,
			"target":34962
		},
		{
			"buffer":0,
			"byteLength":6948,
			"byteOffset":6948,
			"target":34962
		},
		{
			"buffer":0,
			"byteLength":4632,
			"byteOffset":13896,
			"target":34962
		},
		{
			"buffer":0,
			"byteLength":4632,
			"byteOffset":18528,
			"target":34962
		},
		{
			"buffer":0,
			"byteLength":4632,
			"byteOffset":23160,
			"target":34962
		},
		{
			"buffer":0,
			"byteLength":4632,
			"byteOffset":27792,
			"target":34962
		},
		{
			"buffer":0,
			"byteLength":3870,
			"byteOffset":32424,
			"target":34963
		},
		{
			"buffer":0,
			"byteLength":69232,
			"byteOffset":36296
		},
		{
			"buffer":0,
			"byteLength":555971,
			"byteOffset":105528
		},
		{
			"buffer":0,
			"byteLength":384154,
			"byteOffset":661500
		},
		{
			"buffer":0,
			"byteLength":230334,
			"byteOffset":1045656
		}
	],
	"samplers":[
		{
			"magFilter":9729,
			"minFilter":9987
		}
	],
	"buffers":[
		{
			"byteLength":1275992,
			"uri":"data:application/octet-stream;base64,"
		}
	]
}
