{
	"asset":{
		"generator":"Khronos glTF Blender I/O v3.6.27",
		"version":"2.0"
	},
	"extensionsUsed":[
		"KHR_materials_specular"
	],
	"scene":0,
	"scenes":[
		{
			"name":"Scene",
			"nodes":[
				4
			]
		}
	],
	"nodes":[
		{
			"mesh":0,
			"name":"node_Couch_9592.001_details_0"
		},
		{
			"children":[
				0
			],
			"name":"node_Couch_9592.001",
			"rotation":[
				0,
				-0.7071066498756409,
				-0.70710688829422,
				5.338507236274381e-08
			],
			"scale":[
				99.99998474121094,
				99.99998474121094,
				99.99998474121094
			],
			"translation":[
				-6.987870216369629,
				43.68815612792969,
				-12.181580543518066
			]
		},
		{
			"children":[
				1
			],
			"name":"RootNode"
		},
		{
			"children":[
				2
			],
			"name":"7da935e861424c37b981a165bd383bac.fbx",
			"rotation":[
				0.70710688829422,
				0,
				0,
				0.7071066498756409
			],
			"scale":[
				0.009999999776482582,
				0.009999997913837433,
				0.009999997913837433
			]
		},
		{
			"children":[
				3
			],
			"name":"Sketchfab_model",
			"rotation":[
				-0.70710688829422,
				0,
				0,
				0.7071066498756409
			]
		}
	],
	"materials":[
		{
			"doubleSided":true,
			"extensions":{
				"KHR_materials_specular":{
					"specularColorTexture":{
						"index":0
					},
					"specularColorFactor":[
						1.007936523252283,
						1.006420282032593,
						1.00661207711164
					]
				}
			},
			"name":"details.011",
			"normalTexture":{
				"index":1
			},
			"occlusionTexture":{
				"index":2,
				"texCoord":1
			},
			"pbrMetallicRoughness":{
				"baseColorTexture":{
					"index":3
				},
				"metallicFactor":0.7985458374023438,
				"metallicRoughnessTexture":{
					"index":2
				}
			}
		}
	],
	"meshes":[
		{
			"name":"node_Couch_9592.001_details_0.002",
			"primitives":[
				{
					"attributes":{
						"POSITION":0,
						"NORMAL":1,
						"TEXCOORD_0":2,
						"TEXCOORD_1":3,
						"TEXCOORD_2":4,
						"TEXCOORD_3":5
					},
					"indices":6,
					"material":0
				}
			]
		}
	],
	"textures":[
		{
			"sampler":0,
			"source":0
		},
		{
			"sampler":0,
			"source":1
		},
		{
			"sampler":0,
			"source":2
		},
		{
			"sampler":0,
			"source":3
		}
	],
	"images":[
		{
			"bufferView":7,
			"mimeType":"image/png",
			"name":"Image"
		},
		{
			"bufferView":8,
			"mimeType":"image/png",
			"name":"details_normal"
		},
		{
			"bufferView":9,
			"mimeType":"image/png",
			"name":"details_metallicRoughness"
		},
		{
			"bufferView":10,
			"mimeType":"image/png",
			"name":"details_baseColor"
		}
	],
	"accessors":[
		{
			"bufferView":0,
			"componentType":5126,
			"count":728,
			"max":[
				1.0635615587234497,
				0.5341042280197144,
				0.40022706985473633
			],
			"min":[
				-1.0559382438659668,
				-0.3372267484664917,
				-0.4609992504119873
			],
			"type":"VEC3"
		},
		{
			"bufferView":1,
			"componentType":5126,
			"count":728,
			"type":"VEC3"
		},
		{
			"bufferView":2,
			"componentType":5126,
			"count":728,
			"type":"VEC2"
		},
		{
			"bufferView":3,
			"componentType":5126,
			"count":728,
			"type":"VEC2"
		},
		{
			"bufferView":4,
			"componentType":5126,
			"count":728,
			"type":"VEC2"
		},
		{
			"bufferView":5,
			"componentType":5126,
			"count":728,
			"type":"VEC2"
		},
		{
			"bufferView":6,
			"componentType":5123,
			"count":2418,
			"type":"SCALAR"
		}
	],
	"bufferViews":[
		{
			"buffer":0,
			"byteLength":8736,
			"byteOffset":0,
			"target":34962
		},
		{
			"buffer":0,
			"byteLength":8736,
			"byteOffset":8736,
			"target":34962
		},
		{
			"buffer":0,
			"byteLength":5824,
			"byteOffset":17472,
			"target":34962
		},
		{
			"buffer":0,
			"byteLength":5824,
			"byteOffset":23296,
			"target":34962
		},
		{
			"buffer":0,
			"byteLength":5824,
			"byteOffset":29120,
			"target":34962
		},
		{
			"buffer":0,
			"byteLength":5824,
			"byteOffset":34944,
			"target":34962
		},
		{
			"buffer":0,
			"byteLength":4836,
			"byteOffset":40768,
			"target":34963
		},
		{
			"buffer":0,
			"byteLength":69232,
			"byteOffset":45604
		},
		{
			"buffer":0,
			"byteLength":555971,
			"byteOffset":114836
		},
		{
			"buffer":0,
			"byteLength":384154,
			"byteOffset":670808
		},
		{
			"buffer":0,
			"byteLength":230334,
			"byteOffset":1054964
		}
	],
	"samplers":[
		{
			"magFilter":9729,
			"minFilter":9987
		}
	],
	"buffers":[
		{
			"byteLength":1285300,
			"uri":"data:application/octet-stream;base64,"
		}
	]
}
