{
	"asset":{
		"generator":"Khronos glTF Blender I/O v3.6.27",
		"version":"2.0"
	},
	"scene":0,
	"scenes":[
		{
			"name":"Scene",
			"nodes":[
				1
			]
		}
	],
	"nodes":[
		{
			"mesh":0,
			"name":"Table_Static_Table_0"
		},
		{
			"children":[
				0
			],
			"name":"Table_Static",
			"rotation":[
				-0.5,
				-0.5,
				-0.5,
				0.5
			],
			"translation":[
				-3.1653902530670166,
				2.4795535864541307e-05,
				-0.07699526846408844
			]
		}
	],
	"materials":[
		{
			"doubleSided":true,
			"name":"Table.001",
			"normalTexture":{
				"index":0
			},
			"pbrMetallicRoughness":{
				"baseColorTexture":{
					"index":1
				},
				"metallicFactor":0,
				"metallicRoughnessTexture":{
					"index":2
				}
			}
		}
	],
	"meshes":[
		{
			"name":"Table_Static_Table_0.001",
			"primitives":[
				{
					"attributes":{
						"POSITION":0,
						"NORMAL":1,
						"TEXCOORD_0":2,
						"TEXCOORD_1":3
					},
					"indices":4,
					"material":0
				}
			]
		}
	],
	"textures":[
		{
			"sampler":0,
			"source":0
		},
		{
			"sampler":0,
			"source":1
		},
		{
			"sampler":0,
			"source":2
		}
	],
	"images":[
		{
			"bufferView":5,
			"mimeType":"image/jpeg",
			"name":"Table_normal"
		},
		{
			"bufferView":6,
			"mimeType":"image/jpeg",
			"name":"Table_baseColor"
		},
		{
			"bufferView":7,
			"mimeType":"image/jpeg",
			"name":"Table_metallicRoughness"
		}
	],
	"accessors":[
		{
			"bufferView":0,
			"componentType":5126,
			"count":7178,
			"max":[
				0.2999633848667145,
				0.6000000238418579,
				0.7200145125389099
			],
			"min":[
				-0.29999998211860657,
				-0.6000000238418579,
				-9.12852797796404e-08
			],
			"type":"VEC3"
		},
		{
			"bufferView":1,
			"componentType":5126,
			"count":7178,
			"type":"VEC3"
		},
		{
			"bufferView":2,
			"componentType":5126,
			"count":7178,
			"type":"VEC2"
		},
		{
			"bufferView":3,
			"componentType":5126,
			"count":7178,
			"type":"VEC2"
		},
		{
			"bufferView":4,
			"componentType":5123,
			"count":15132,
			"type":"SCALAR"
		}
	],
	"bufferViews":[
		{
			"buffer":0,
			"byteLength":86136,
			"byteOffset":0,
			"target":34962
		},
		{
			"buffer":0,
			"byteLength":86136,
			"byteOffset":86136,
			"target":34962
		},
		{
			"buffer":0,
			"byteLength":57424,
			"byteOffset":172272,
			"target":34962
		},
		{
			"buffer":0,
			"byteLength":57424,
			"byteOffset":229696,
			"target":34962
		},
		{
			"buffer":0,
			"byteLength":30264,
			"byteOffset":287120,
			"target":34963
		},
		{
			"buffer":0,
			"byteLength":17030,
			"byteOffset":317384
		},
		{
			"buffer":0,
			"byteLength":63032,
			"byteOffset":334416
		},
		{
			"buffer":0,
			"byteLength":113295,
			"byteOffset":397448
		}
	],
	"samplers":[
		{
			"magFilter":9729,
			"minFilter":9987
		}
	],
	"buffers":[
		{
			"byteLength":510744,
			"uri":"data:application/octet-stream;base64,"
		}
	]
}
