{
	"asset":{
		"generator":"Khronos glTF Blender I/O v3.6.27",
		"version":"2.0"
	},
	"scene":0,
	"scenes":[
		{
			"name":"Scene",
			"nodes":[
				0,
				1,
				2
			]
		}
	],
	"nodes":[
		{
			"mesh":0,
			"name":"Material2.001",
			"rotation":[
				-0.70710688829422,
				0,
				0,
				0.7071066498756409
			],
			"scale":[
				0.02500000037252903,
				0.02500000409781933,
				0.02500000409781933
			]
		},
		{
			"mesh":1,
			"name":"Material2.003",
			"rotation":[
				-0.70710688829422,
				0,
				0,
				0.7071066498756409
			],
			"scale":[
				0.02500000037252903,
				0.02500000409781933,
				0.02500000409781933
			]
		},
		{
			"mesh":2,
			"name":"Material2.004",
			"rotation":[
				-0.70710688829422,
				0,
				0,
				0.7071066498756409
			],
			"scale":[
				0.02500000037252903,
				0.02500000409781933,
				0.02500000409781933
			]
		}
	],
	"materials":[
		{
			"name":"Texture_3.jpeg",
			"pbrMetallicRoughness":{
				"baseColorTexture":{
					"index":0
				},
				"metallicFactor":0,
				"roughnessFactor":0.6000000238418579
			}
		},
		{
			"name":"Texture_4.jpeg",
			"pbrMetallicRoughness":{
				"baseColorTexture":{
					"index":1
				},
				"metallicFactor":0,
				"roughnessFactor":0.6000000238418579
			}
		},
		{
			"name":"Texture_5.jpeg",
			"pbrMetallicRoughness":{
				"baseColorTexture":{
					"index":2
				},
				"metallicFactor":0,
				"roughnessFactor":0.6000000238418579
			}
		}
	],
	"meshes":[
		{
			"name":"Material2.001",
			"primitives":[
				{
					"attributes":{
						"POSITION":0,
						"NORMAL":1,
						"TEXCOORD_0":2
					},
					"indices":3,
					"material":0
				}
			]
		},
		{
			"name":"Material2.003",
			"primitives":[
				{
					"attributes":{
						"POSITION":4,
						"NORMAL":5,
						"TEXCOORD_0":6
					},
					"indices":7,
					"material":1
				}
			]
		},
		{
			"name":"Material2.004",
			"primitives":[
				{
					"attributes":{
						"POSITION":8,
						"NORMAL":9,
						"TEXCOORD_0":10
					},
					"indices":11,
					"material":2
				}
			]
		}
	],
	"textures":[
		{
			"sampler":0,
			"source":0
		},
		{
			"sampler":0,
			"source":1
		},
		{
			"sampler":0,
			"source":2
		}
	],
	"images":[
		{
			"bufferView":4,
			"mimeType":"image/jpeg",
			"name":"Texture_3.jpeg_baseColor"
		},
		{
			"bufferView":9,
			"mimeType":"image/jpeg",
			"name":"Texture_4.jpeg_baseColor"
		},
		{
			"bufferView":14,
			"mimeType":"image/jpeg",
			"name":"Texture_5.jpeg_baseColor"
		}
	],
	"accessors":[
		{
			"bufferView":0,
			"componentType":5126,
			"count":15834,
			"max":[
				-20.30878448486328,
				11.342521667480469,
				31.276248931884766
			],
			"min":[
				-44.6031494140625,
				-12.455673217773438,
				16.326501846313477
			],
			"type":"VEC3"
		},
		{
			"bufferView":1,
			"componentType":5126,
			"count":15834,
			"type":"VEC3"
		},
		{
			"bufferView":2,
			"componentType":5126,
			"count":15834,
			"type":"VEC2"
		},
		{
			"bufferView":3,
			"componentType":5123,
			"count":77514,
			"type":"SCALAR"
		},
		{
			"bufferView":5,
			"componentType":5126,
			"count":3255,
			"max":[
				-30.15839195251465,
				2.741663694381714,
				20.48450469970703
			],
			"min":[
				-40.91249465942383,
				-9.386543273925781,
				16.632038116455078
			],
			"type":"VEC3"
		},
		{
			"bufferView":6,
			"componentType":5126,
			"count":3255,
			"type":"VEC3"
		},
		{
			"bufferView":7,
			"componentType":5126,
			"count":3255,
			"type":"VEC2"
		},
		{
			"bufferView":8,
			"componentType":5123,
			"count":12426,
			"type":"SCALAR"
		},
		{
			"bufferView":10,
			"componentType":5126,
			"count":21498,
			"max":[
				-19.419509887695312,
				12.346582412719727,
				26.34178924560547
			],
			"min":[
				-48.51454162597656,
				-16.540498733520508,
				0.0023776674643158913
			],
			"type":"VEC3"
		},
		{
			"bufferView":11,
			"componentType":5126,
			"count":21498,
			"type":"VEC3"
		},
		{
			"bufferView":12,
			"componentType":5126,
			"count":21498,
			"type":"VEC2"
		},
		{
			"bufferView":13,
			"componentType":5123,
			"count":58524,
			"type":"SCALAR"
		}
	],
	"bufferViews":[
		{
			"buffer":0,
			"byteLength":190008,
			"byteOffset":0,
			"target":34962
		},
		{
			"buffer":0,
			"byteLength":190008,
			"byteOffset":190008,
			"target":34962
		},
		{
			"buffer":0,
			"byteLength":126672,
			"byteOffset":380016,
			"target":34962
		},
		{
			"buffer":0,
			"byteLength":155028,
			"byteOffset":506688,
			"target":34963
		},
		{
			"buffer":0,
			"byteLength":58980,
			"byteOffset":661716
		},
		{
			"buffer":0,
			"byteLength":39060,
			"byteOffset":720696,
			"target":34962
		},
		{
			"buffer":0,
			"byteLength":39060,
			"byteOffset":759756,
			"target":34962
		},
		{
			"buffer":0,
			"byteLength":26040,
			"byteOffset":798816,
			"target":34962
		},
		{
			"buffer":0,
			"byteLength":24852,
			"byteOffset":824856,
			"target":34963
		},
		{
			"buffer":0,
			"byteLength":205131,
			"byteOffset":849708
		},
		{
			"buffer":0,
			"byteLength":257976,
			"byteOffset":1054840,
			"target":34962
		},
		{
			"buffer":0,
			"byteLength":257976,
			"byteOffset":1312816,
			"target":34962
		},
		{
			"buffer":0,
			"byteLength":171984,
			"byteOffset":1570792,
			"target":34962
		},
		{
			"buffer":0,
			"byteLength":117048,
			"byteOffset":1742776,
			"target":34963
		},
		{
			"buffer":0,
			"byteLength":42265,
			"byteOffset":1859824
		}
	],
	"samplers":[
		{
			"magFilter":9729,
			"minFilter":9987
		}
	],
	"buffers":[
		{
			"byteLength":1902092,
			"uri":"data:application/octet-stream;base64,"
		}
	]
}
