{
	"asset":{
		"generator":"Khronos glTF Blender I/O v3.6.27",
		"version":"2.0"
	},
	"scene":0,
	"scenes":[
		{
			"name":"Scene",
			"nodes":[
				4
			]
		}
	],
	"nodes":[
		{
			"mesh":0,
			"name":"Material2"
		},
		{
			"mesh":1,
			"name":"Material2.002"
		},
		{
			"name":"SketchUp"
		},
		{
			"children":[
				0,
				1,
				2
			],
			"name":"Collada visual scene group"
		},
		{
			"children":[
				3
			],
			"name":"Sketchfab_model",
			"rotation":[
				-0.70710688829422,
				0,
				0,
				0.7071066498756409
			],
			"scale":[
				0.02500000037252903,
				0.02500000409781933,
				0.02500000409781933
			]
		}
	],
	"materials":[
		{
			"name":"Texture_1.jpeg",
			"pbrMetallicRoughness":{
				"baseColorTexture":{
					"index":0
				},
				"metallicFactor":0.8134796619415283,
				"roughnessFactor":0.6000000238418579
			}
		},
		{
			"name":"Texture_2.jpeg",
			"pbrMetallicRoughness":{
				"baseColorTexture":{
					"index":1
				},
				"metallicFactor":0,
				"roughnessFactor":0.6000000238418579
			}
		}
	],
	"meshes":[
		{
			"name":"Material2",
			"primitives":[
				{
					"attributes":{
						"POSITION":0,
						"NORMAL":1,
						"TEXCOORD_0":2
					},
					"indices":3,
					"material":0
				}
			]
		},
		{
			"name":"Material2.002",
			"primitives":[
				{
					"attributes":{
						"POSITION":4,
						"NORMAL":5,
						"TEXCOORD_0":6
					},
					"indices":7,
					"material":1
				}
			]
		}
	],
	"textures":[
		{
			"sampler":0,
			"source":0
		},
		{
			"sampler":0,
			"source":1
		}
	],
	"images":[
		{
			"bufferView":4,
			"mimeType":"image/jpeg",
			"name":"Texture_1.jpeg_baseColor"
		},
		{
			"bufferView":9,
			"mimeType":"image/jpeg",
			"name":"Texture_2.jpeg_baseColor"
		}
	],
	"accessors":[
		{
			"bufferView":0,
			"componentType":5126,
			"count":9201,
			"max":[
				19.669424057006836,
				19.66942596435547,
				29.9212646484375
			],
			"min":[
				-19.669424057006836,
				-19.669424057006836,
				10.570623397827148
			],
			"type":"VEC3"
		},
		{
			"bufferView":1,
			"componentType":5126,
			"count":9201,
			"type":"VEC3"
		},
		{
			"bufferView":2,
			"componentType":5126,
			"count":9201,
			"type":"VEC2"
		},
		{
			"bufferView":3,
			"componentType":5123,
			"count":20712,
			"type":"SCALAR"
		},
		{
			"bufferView":5,
			"componentType":5126,
			"count":3196,
			"max":[
				6.007850170135498,
				6.007848739624023,
				10.570730209350586
			],
			"min":[
				-6.00784969329834,
				-6.007851600646973,
				-2.425345826395642e-07
			],
			"type":"VEC3"
		},
		{
			"bufferView":6,
			"componentType":5126,
			"count":3196,
			"type":"VEC3"
		},
		{
			"bufferView":7,
			"componentType":5126,
			"count":3196,
			"type":"VEC2"
		},
		{
			"bufferView":8,
			"componentType":5123,
			"count":7956,
			"type":"SCALAR"
		}
	],
	"bufferViews":[
		{
			"buffer":0,
			"byteLength":110412,
			"byteOffset":0,
			"target":34962
		},
		{
			"buffer":0,
			"byteLength":110412,
			"byteOffset":110412,
			"target":34962
		},
		{
			"buffer":0,
			"byteLength":73608,
			"byteOffset":220824,
			"target":34962
		},
		{
			"buffer":0,
			"byteLength":41424,
			"byteOffset":294432,
			"target":34963
		},
		{
			"buffer":0,
			"byteLength":64018,
			"byteOffset":335856
		},
		{
			"buffer":0,
			"byteLength":38352,
			"byteOffset":399876,
			"target":34962
		},
		{
			"buffer":0,
			"byteLength":38352,
			"byteOffset":438228,
			"target":34962
		},
		{
			"buffer":0,
			"byteLength":25568,
			"byteOffset":476580,
			"target":34962
		},
		{
			"buffer":0,
			"byteLength":15912,
			"byteOffset":502148,
			"target":34963
		},
		{
			"buffer":0,
			"byteLength":62127,
			"byteOffset":518060
		}
	],
	"samplers":[
		{
			"magFilter":9729,
			"minFilter":9987
		}
	],
	"buffers":[
		{
			"byteLength":580188,
			"uri":"data:application/octet-stream;base64,"
		}
	]
}
