{
	"asset":{
		"generator":"Khronos glTF Blender I/O v3.6.27",
		"version":"2.0"
	},
	"extensionsUsed":[
		"KHR_materials_transmission"
	],
	"scene":0,
	"scenes":[
		{
			"name":"Scene",
			"nodes":[
				12
			]
		}
	],
	"nodes":[
		{
			"mesh":0,
			"name":"Object_12",
			"translation":[
				4.552304744720459e-06,
				0,
				0
			]
		},
		{
			"children":[
				0
			],
			"name":"3_4",
			"rotation":[
				0,
				-0.9999832510948181,
				0,
				0.005791827104985714
			],
			"scale":[
				0.0010000000474974513,
				0.0010000000474974513,
				0.0010000000474974513
			],
			"translation":[
				0.3873356878757477,
				0.9595072269439697,
				0.010388553142547607
			]
		},
		{
			"mesh":1,
			"name":"Object_10",
			"translation":[
				0,
				6.103515625e-05,
				0
			]
		},
		{
			"children":[
				2
			],
			"name":"center_3",
			"scale":[
				0.0010000000474974513,
				0.0010000000474974513,
				0.0010000000474974513
			],
			"translation":[
				0.0749860405921936,
				0.94516921043396,
				0.07407592982053757
			]
		},
		{
			"mesh":2,
			"name":"Object_8",
			"translation":[
				-3.0517578125e-05,
				-6.103515625e-05,
				0
			]
		},
		{
			"children":[
				4
			],
			"name":"window 1_2",
			"scale":[
				0.0010000000474974513,
				0.0010000000474974513,
				0.0010000000474974513
			],
			"translation":[
				-0.32277870178222656,
				0.9619132876396179,
				0.012553964741528034
			]
		},
		{
			"mesh":3,
			"name":"Object_6",
			"translation":[
				0,
				-6.103515625e-05,
				0
			]
		},
		{
			"children":[
				6
			],
			"name":"window 2_1",
			"scale":[
				0.0009717940702103078,
				0.0009717940702103078,
				0.0009717940702103078
			],
			"translation":[
				0.33307433128356934,
				0.9534491300582886,
				0.007461355999112129
			]
		},
		{
			"mesh":4,
			"name":"Object_4",
			"translation":[
				6.103515625e-05,
				-6.103515625e-05,
				0
			]
		},
		{
			"children":[
				8
			],
			"name":"window 3_0",
			"scale":[
				0.0010000000474974513,
				0.0010000000474974513,
				0.0010000000474974513
			],
			"translation":[
				0.9637195467948914,
				0.9619132876396179,
				0.012553964741528034
			]
		},
		{
			"children":[
				1,
				3,
				5,
				7,
				9
			],
			"name":"GLTF_SceneRootNode",
			"rotation":[
				0.70710688829422,
				0,
				0,
				0.7071066498756409
			]
		},
		{
			"children":[
				10
			],
			"name":"root"
		},
		{
			"children":[
				11
			],
			"name":"Sketchfab_model",
			"rotation":[
				-0.70710688829422,
				0,
				0,
				0.7071066498756409
			]
		}
	],
	"materials":[
		{
			"doubleSided":true,
			"name":"window",
			"pbrMetallicRoughness":{
				"metallicFactor":0.5,
				"roughnessFactor":0.5
			}
		},
		{
			"alphaMode":"BLEND",
			"doubleSided":true,
			"extensions":{
				"KHR_materials_transmission":{
					"transmissionFactor":1
				}
			},
			"name":"glass.001",
			"pbrMetallicRoughness":{
				"baseColorFactor":[
					0.800000011920929,
					0.800000011920929,
					0.800000011920929,
					0.25
				],
				"metallicFactor":0,
				"roughnessFactor":0
			}
		}
	],
	"meshes":[
		{
			"name":"Object_4.003",
			"primitives":[
				{
					"attributes":{
						"POSITION":0,
						"NORMAL":1,
						"TEXCOORD_0":2
					},
					"indices":3,
					"material":0
				}
			]
		},
		{
			"name":"Object_3.003",
			"primitives":[
				{
					"attributes":{
						"POSITION":4,
						"NORMAL":5,
						"TEXCOORD_0":6
					},
					"indices":7,
					"material":0
				}
			]
		},
		{
			"name":"Object_2.003",
			"primitives":[
				{
					"attributes":{
						"POSITION":8,
						"NORMAL":9,
						"TEXCOORD_0":10
					},
					"indices":11,
					"material":1
				}
			]
		},
		{
			"name":"Object_1.003",
			"primitives":[
				{
					"attributes":{
						"POSITION":12,
						"NORMAL":13,
						"TEXCOORD_0":14
					},
					"indices":11,
					"material":1
				}
			]
		},
		{
			"name":"Object_0.003",
			"primitives":[
				{
					"attributes":{
						"POSITION":15,
						"NORMAL":16,
						"TEXCOORD_0":17
					},
					"indices":11,
					"material":1
				}
			]
		}
	],
	"accessors":[
		{
			"bufferView":0,
			"componentType":5126,
			"count":4402,
			"max":[
				1057.72509765625,
				750.0006103515625,
				40.04136276245117
			],
			"min":[
				-929.67041015625,
				-749.9993896484375,
				-35.511573791503906
			],
			"type":"VEC3"
		},
		{
			"bufferView":1,
			"componentType":5126,
			"count":4402,
			"type":"VEC3"
		},
		{
			"bufferView":2,
			"componentType":5126,
			"count":4402,
			"type":"VEC2"
		},
		{
			"bufferView":3,
			"componentType":5123,
			"count":6162,
			"type":"SCALAR"
		},
		{
			"bufferView":4,
			"componentType":5126,
			"count":3174,
			"max":[
				582.7403564453125,
				710.4586181640625,
				27.707923889160156
			],
			"min":[
				-76.64879608154297,
				-681.781982421875,
				-74.37581634521484
			],
			"type":"VEC3"
		},
		{
			"bufferView":5,
			"componentType":5126,
			"count":3174,
			"type":"VEC3"
		},
		{
			"bufferView":6,
			"componentType":5126,
			"count":3174,
			"type":"VEC2"
		},
		{
			"bufferView":7,
			"componentType":5123,
			"count":11868,
			"type":"SCALAR"
		},
		{
			"bufferView":8,
			"componentType":5126,
			"count":24,
			"max":[
				299.512451171875,
				695.051513671875,
				15.124246597290039
			],
			"min":[
				-299.512451171875,
				-695.051513671875,
				-15.124246597290039
			],
			"type":"VEC3"
		},
		{
			"bufferView":9,
			"componentType":5126,
			"count":24,
			"type":"VEC3"
		},
		{
			"bufferView":10,
			"componentType":5126,
			"count":24,
			"type":"VEC2"
		},
		{
			"bufferView":11,
			"componentType":5123,
			"count":36,
			"type":"SCALAR"
		},
		{
			"bufferView":12,
			"componentType":5126,
			"count":24,
			"max":[
				299.512451171875,
				709.149658203125,
				15.124246597290039
			],
			"min":[
				-299.512451171875,
				-709.149658203125,
				-15.124246597290039
			],
			"type":"VEC3"
		},
		{
			"bufferView":13,
			"componentType":5126,
			"count":24,
			"type":"VEC3"
		},
		{
			"bufferView":14,
			"componentType":5126,
			"count":24,
			"type":"VEC2"
		},
		{
			"bufferView":15,
			"componentType":5126,
			"count":24,
			"max":[
				299.512451171875,
				695.051513671875,
				15.124246597290039
			],
			"min":[
				-299.512451171875,
				-695.051513671875,
				-15.124246597290039
			],
			"type":"VEC3"
		},
		{
			"bufferView":16,
			"componentType":5126,
			"count":24,
			"type":"VEC3"
		},
		{
			"bufferView":17,
			"componentType":5126,
			"count":24,
			"type":"VEC2"
		}
	],
	"bufferViews":[
		{
			"buffer":0,
			"byteLength":52824,
			"byteOffset":0,
			"target":34962
		},
		{
			"buffer":0,
			"byteLength":52824,
			"byteOffset":52824,
			"target":34962
		},
		{
			"buffer":0,
			"byteLength":35216,
			"byteOffset":105648,
			"target":34962
		},
		{
			"buffer":0,
			"byteLength":12324,
			"byteOffset":140864,
			"target":34963
		},
		{
			"buffer":0,
			"byteLength":38088,
			"byteOffset":153188,
			"target":34962
		},
		{
			"buffer":0,
			"byteLength":38088,
			"byteOffset":191276,
			"target":34962
		},
		{
			"buffer":0,
			"byteLength":25392,
			"byteOffset":229364,
			"target":34962
		},
		{
			"buffer":0,
			"byteLength":23736,
			"byteOffset":254756,
			"target":34963
		},
		{
			"buffer":0,
			"byteLength":288,
			"byteOffset":278492,
			"target":34962
		},
		{
			"buffer":0,
			"byteLength":288,
			"byteOffset":278780,
			"target":34962
		},
		{
			"buffer":0,
			"byteLength":192,
			"byteOffset":279068,
			"target":34962
		},
		{
			"buffer":0,
			"byteLength":72,
			"byteOffset":279260,
			"target":34963
		},
		{
			"buffer":0,
			"byteLength":288,
			"byteOffset":279332,
			"target":34962
		},
		{
			"buffer":0,
			"byteLength":288,
			"byteOffset":279620,
			"target":34962
		},
		{
			"buffer":0,
			"byteLength":192,
			"byteOffset":279908,
			"target":34962
		},
		{
			"buffer":0,
			"byteLength":288,
			"byteOffset":280100,
			"target":34962
		},
		{
			"buffer":0,
			"byteLength":288,
			"byteOffset":280388,
			"target":34962
		},
		{
			"buffer":0,
			"byteLength":192,
			"byteOffset":280676,
			"target":34962
		}
	],
	"buffers":[
		{
			"byteLength":280868,
			"uri":"data:application/octet-stream;base64,"
		}
	]
}
