{
	"asset":{
		"generator":"Khronos glTF Blender I/O v3.6.27",
		"version":"2.0"
	},
	"extensionsUsed":[
		"KHR_materials_transmission",
		"KHR_materials_specular"
	],
	"scene":0,
	"scenes":[
		{
			"name":"Scene",
			"nodes":[
				8
			]
		}
	],
	"nodes":[
		{
			"mesh":0,
			"name":"Plane.001_Material.043_0",
			"rotation":[
				0,
				-0.7071066498756409,
				0,
				0.70710688829422
			]
		},
		{
			"children":[
				0
			],
			"name":"Plane.001"
		},
		{
			"mesh":1,
			"name":"Plane.002_Material.064_0",
			"rotation":[
				0,
				-0.7071066498756409,
				0,
				0.70710688829422
			]
		},
		{
			"children":[
				2
			],
			"name":"Plane.002"
		},
		{
			"mesh":2,
			"name":"Plane.058_Material.042_0",
			"rotation":[
				0,
				-0.7071066498756409,
				0,
				0.70710688829422
			]
		},
		{
			"children":[
				4
			],
			"name":"Plane.058"
		},
		{
			"children":[
				1,
				3,
				5
			],
			"name":"RootNode"
		},
		{
			"children":[
				6
			],
			"name":"0c4c5861ad2a4757a4ba60ad556421cc.fbx",
			"rotation":[
				0.70710688829422,
				0,
				0,
				0.7071066498756409
			],
			"scale":[
				0.009999999776482582,
				0.009999998845160007,
				0.009999998845160007
			]
		},
		{
			"children":[
				7
			],
			"name":"Sketchfab_model",
			"rotation":[
				-0.70710688829422,
				0,
				0,
				0.7071066498756409
			],
			"scale":[
				0.5,
				0.4999999403953552,
				0.4999999403953552
			]
		}
	],
	"materials":[
		{
			"doubleSided":true,
			"name":"Material.007",
			"pbrMetallicRoughness":{
				"metallicFactor":0.20000000298023224,
				"roughnessFactor":0.30000001192092896
			}
		},
		{
			"alphaMode":"BLEND",
			"doubleSided":true,
			"extensions":{
				"KHR_materials_transmission":{
					"transmissionFactor":1
				},
				"KHR_materials_specular":{
					"specularColorFactor":[
						1,
						1,
						1
					]
				}
			},
			"name":"Material.008",
			"pbrMetallicRoughness":{
				"baseColorFactor":[
					0,
					0,
					0,
					0.25
				],
				"roughnessFactor":0
			}
		},
		{
			"doubleSided":true,
			"name":"Material.009",
			"pbrMetallicRoughness":{
				"metallicFactor":0.20000000298023224,
				"roughnessFactor":0.699999988079071
			}
		}
	],
	"meshes":[
		{
			"name":"Plane.001_Material.043_0.002",
			"primitives":[
				{
					"attributes":{
						"POSITION":0,
						"NORMAL":1,
						"TEXCOORD_0":2
					},
					"indices":3,
					"material":0
				}
			]
		},
		{
			"name":"Plane.002_Material.064_0.002",
			"primitives":[
				{
					"attributes":{
						"POSITION":4,
						"NORMAL":5,
						"TEXCOORD_0":6
					},
					"indices":7,
					"material":1
				}
			]
		},
		{
			"name":"Plane.058_Material.042_0.002",
			"primitives":[
				{
					"attributes":{
						"POSITION":8,
						"NORMAL":9,
						"TEXCOORD_0":10
					},
					"indices":11,
					"material":2
				}
			]
		}
	],
	"accessors":[
		{
			"bufferView":0,
			"componentType":5126,
			"count":122,
			"max":[
				-489.9999694824219,
				205,
				-9.791278839111328
			],
			"min":[
				-500,
				0,
				-298.82354736328125
			],
			"type":"VEC3"
		},
		{
			"bufferView":1,
			"componentType":5126,
			"count":122,
			"type":"VEC3"
		},
		{
			"bufferView":2,
			"componentType":5126,
			"count":122,
			"type":"VEC2"
		},
		{
			"bufferView":3,
			"componentType":5123,
			"count":216,
			"type":"SCALAR"
		},
		{
			"bufferView":4,
			"componentType":5126,
			"count":32,
			"max":[
				-492.3158264160156,
				402.5474548339844,
				-17.243818283081055
			],
			"min":[
				-497.68414306640625,
				7.45253849029541,
				-291.3710021972656
			],
			"type":"VEC3"
		},
		{
			"bufferView":5,
			"componentType":5126,
			"count":32,
			"type":"VEC3"
		},
		{
			"bufferView":6,
			"componentType":5126,
			"count":32,
			"type":"VEC2"
		},
		{
			"bufferView":7,
			"componentType":5123,
			"count":48,
			"type":"SCALAR"
		},
		{
			"bufferView":8,
			"componentType":5126,
			"count":122,
			"max":[
				-489.9999694824219,
				410,
				-9.791278839111328
			],
			"min":[
				-500,
				205,
				-298.82354736328125
			],
			"type":"VEC3"
		},
		{
			"bufferView":9,
			"componentType":5126,
			"count":122,
			"type":"VEC3"
		},
		{
			"bufferView":10,
			"componentType":5126,
			"count":122,
			"type":"VEC2"
		},
		{
			"bufferView":11,
			"componentType":5123,
			"count":216,
			"type":"SCALAR"
		}
	],
	"bufferViews":[
		{
			"buffer":0,
			"byteLength":1464,
			"byteOffset":0,
			"target":34962
		},
		{
			"buffer":0,
			"byteLength":1464,
			"byteOffset":1464,
			"target":34962
		},
		{
			"buffer":0,
			"byteLength":976,
			"byteOffset":2928,
			"target":34962
		},
		{
			"buffer":0,
			"byteLength":432,
			"byteOffset":3904,
			"target":34963
		},
		{
			"buffer":0,
			"byteLength":384,
			"byteOffset":4336,
			"target":34962
		},
		{
			"buffer":0,
			"byteLength":384,
			"byteOffset":4720,
			"target":34962
		},
		{
			"buffer":0,
			"byteLength":256,
			"byteOffset":5104,
			"target":34962
		},
		{
			"buffer":0,
			"byteLength":96,
			"byteOffset":5360,
			"target":34963
		},
		{
			"buffer":0,
			"byteLength":1464,
			"byteOffset":5456,
			"target":34962
		},
		{
			"buffer":0,
			"byteLength":1464,
			"byteOffset":6920,
			"target":34962
		},
		{
			"buffer":0,
			"byteLength":976,
			"byteOffset":8384,
			"target":34962
		},
		{
			"buffer":0,
			"byteLength":432,
			"byteOffset":9360,
			"target":34963
		}
	],
	"buffers":[
		{
			"byteLength":9792,
			"uri":"data:application/octet-stream;base64,"
		}
	]
}
