{
	"asset":{
		"generator":"Khronos glTF Blender I/O v3.6.27",
		"version":"2.0"
	},
	"scene":0,
	"scenes":[
		{
			"name":"Scene",
			"nodes":[
				17
			]
		}
	],
	"nodes":[
		{
			"mesh":0,
			"name":"Object_16"
		},
		{
			"mesh":1,
			"name":"Object_17"
		},
		{
			"mesh":2,
			"name":"Object_18"
		},
		{
			"children":[
				0,
				1,
				2
			],
			"name":"3DSMeshMatrix.003",
			"translation":[
				-33.861968994140625,
				-0.9087791442871094,
				-40.492122650146484
			]
		},
		{
			"children":[
				3
			],
			"name":"frame43",
			"translation":[
				42.121551513671875,
				0.9087794423103333,
				38.143001556396484
			]
		},
		{
			"mesh":3,
			"name":"Object_11"
		},
		{
			"mesh":4,
			"name":"Object_12"
		},
		{
			"mesh":5,
			"name":"Object_13"
		},
		{
			"children":[
				5,
				6,
				7
			],
			"name":"3DSMeshMatrix.002",
			"translation":[
				21.037513732910156,
				-0.02250671200454235,
				-38.46452331542969
			]
		},
		{
			"mesh":6,
			"name":"Object_8"
		},
		{
			"mesh":7,
			"name":"Object_9"
		},
		{
			"children":[
				9,
				10
			],
			"name":"3DSMeshMatrix.001",
			"translation":[
				0,
				-0.8260377645492554,
				-38.15846252441406
			]
		},
		{
			"children":[
				11
			],
			"name":"frame430",
			"translation":[
				21.037513732910156,
				0.8035309910774231,
				-0.3060644865036011
			]
		},
		{
			"children":[
				8,
				12
			],
			"name":"frame4w",
			"translation":[
				-21.037513732910156,
				0.02250671200454235,
				38.46452331542969
			]
		},
		{
			"name":"3DSMeshMatrix",
			"translation":[
				-100.52458190917969,
				-292.3385314941406,
				3.873914957046509
			]
		},
		{
			"children":[
				14
			],
			"name":"Plane01",
			"translation":[
				100.52458190917969,
				292.3385314941406,
				-3.8739147186279297
			]
		},
		{
			"children":[
				4,
				13,
				15
			],
			"name":"window43.3DS"
		},
		{
			"children":[
				16
			],
			"name":"Sketchfab_model",
			"rotation":[
				-0.70710688829422,
				0,
				0,
				0.7071066498756409
			],
			"scale":[
				0.019999999552965164,
				0.020000001415610313,
				0.020000001415610313
			]
		}
	],
	"materials":[
		{
			"alphaMode":"BLEND",
			"doubleSided":true,
			"name":"glass",
			"pbrMetallicRoughness":{
				"baseColorFactor":[
					0.5882350206375122,
					0.5882350206375122,
					0.5882350206375122,
					0.14000000059604645
				],
				"metallicFactor":0,
				"roughnessFactor":0.8999999761581421
			}
		},
		{
			"doubleSided":true,
			"name":"Material_57",
			"pbrMetallicRoughness":{
				"baseColorFactor":[
					0.5843139886856079,
					0.5843139886856079,
					0.5843139886856079,
					1
				],
				"metallicFactor":0,
				"roughnessFactor":0.8999999761581421
			}
		},
		{
			"doubleSided":true,
			"name":"standard_alumini",
			"pbrMetallicRoughness":{
				"baseColorFactor":[
					0.5098040103912354,
					0.5098040103912354,
					0.5098040103912354,
					1
				],
				"metallicFactor":0,
				"roughnessFactor":0.8999999761581421
			}
		},
		{
			"doubleSided":true,
			"name":"Material_46",
			"pbrMetallicRoughness":{
				"baseColorFactor":[
					0.5843139886856079,
					0.5843139886856079,
					0.5843139886856079,
					1
				],
				"metallicFactor":0,
				"roughnessFactor":0.8999999761581421
			}
		},
		{
			"doubleSided":true,
			"name":"2_-_Default",
			"pbrMetallicRoughness":{
				"baseColorFactor":[
					0.23137299716472626,
					0.23137299716472626,
					0.23137299716472626,
					1
				],
				"metallicFactor":0,
				"roughnessFactor":0.8999999761581421
			}
		},
		{
			"doubleSided":true,
			"name":"3_-_Default",
			"pbrMetallicRoughness":{
				"baseColorFactor":[
					0.44046416878700256,
					0.44046416878700256,
					0.44046416878700256,
					1
				],
				"metallicFactor":0,
				"roughnessFactor":0.8999999761581421
			}
		}
	],
	"meshes":[
		{
			"name":"Object_6.001",
			"primitives":[
				{
					"attributes":{
						"POSITION":0,
						"NORMAL":1,
						"TEXCOORD_0":2
					},
					"indices":3,
					"material":0
				}
			]
		},
		{
			"name":"Object_7.001",
			"primitives":[
				{
					"attributes":{
						"POSITION":4,
						"NORMAL":5,
						"TEXCOORD_0":6
					},
					"indices":7,
					"material":1
				}
			]
		},
		{
			"name":"Object_8",
			"primitives":[
				{
					"attributes":{
						"POSITION":8,
						"NORMAL":9,
						"TEXCOORD_0":10
					},
					"indices":7,
					"material":2
				}
			]
		},
		{
			"name":"Object_3.002",
			"primitives":[
				{
					"attributes":{
						"POSITION":11,
						"NORMAL":12,
						"TEXCOORD_0":13
					},
					"indices":14,
					"material":0
				}
			]
		},
		{
			"name":"Object_4.002",
			"primitives":[
				{
					"attributes":{
						"POSITION":15,
						"NORMAL":16,
						"TEXCOORD_0":17
					},
					"indices":18,
					"material":2
				}
			]
		},
		{
			"name":"Object_5.001",
			"primitives":[
				{
					"attributes":{
						"POSITION":19,
						"NORMAL":20,
						"TEXCOORD_0":21
					},
					"indices":22,
					"material":3
				}
			]
		},
		{
			"name":"Object_1.002",
			"primitives":[
				{
					"attributes":{
						"POSITION":23,
						"NORMAL":24,
						"TEXCOORD_0":25
					},
					"indices":26,
					"material":4
				}
			]
		},
		{
			"name":"Object_2.002",
			"primitives":[
				{
					"attributes":{
						"POSITION":27,
						"NORMAL":28,
						"TEXCOORD_0":29
					},
					"indices":30,
					"material":5
				}
			]
		}
	],
	"accessors":[
		{
			"bufferView":0,
			"componentType":5126,
			"count":24,
			"max":[
				34.6257438659668,
				3.1211929321289062,
				80.81940460205078
			],
			"min":[
				-7.706226348876953,
				1.5585814714431763,
				4.361042022705078
			],
			"type":"VEC3"
		},
		{
			"bufferView":1,
			"componentType":5126,
			"count":24,
			"type":"VEC3"
		},
		{
			"bufferView":2,
			"componentType":5126,
			"count":24,
			"type":"VEC2"
		},
		{
			"bufferView":3,
			"componentType":5123,
			"count":36,
			"type":"SCALAR"
		},
		{
			"bufferView":4,
			"componentType":5126,
			"count":48,
			"max":[
				35.61361312866211,
				3.7793619632720947,
				81.62716674804688
			],
			"min":[
				-8.939125061035156,
				2.329653739929199,
				3.2448768615722656
			],
			"type":"VEC3"
		},
		{
			"bufferView":5,
			"componentType":5126,
			"count":48,
			"type":"VEC3"
		},
		{
			"bufferView":6,
			"componentType":5126,
			"count":48,
			"type":"VEC2"
		},
		{
			"bufferView":7,
			"componentType":5123,
			"count":96,
			"type":"SCALAR"
		},
		{
			"bufferView":8,
			"componentType":5126,
			"count":48,
			"max":[
				35.61361312866211,
				2.3584892749786377,
				81.62716674804688
			],
			"min":[
				-8.939125061035156,
				0.908778190612793,
				3.2448768615722656
			],
			"type":"VEC3"
		},
		{
			"bufferView":9,
			"componentType":5126,
			"count":48,
			"type":"VEC3"
		},
		{
			"bufferView":10,
			"componentType":5126,
			"count":48,
			"type":"VEC2"
		},
		{
			"bufferView":11,
			"componentType":5126,
			"count":29,
			"max":[
				0.7637786865234375,
				0.08919058740139008,
				78.48573303222656
			],
			"min":[
				-41.12065887451172,
				-1.4734200239181519,
				2.027374267578125
			],
			"type":"VEC3"
		},
		{
			"bufferView":12,
			"componentType":5126,
			"count":29,
			"type":"VEC3"
		},
		{
			"bufferView":13,
			"componentType":5126,
			"count":29,
			"type":"VEC2"
		},
		{
			"bufferView":14,
			"componentType":5123,
			"count":36,
			"type":"SCALAR"
		},
		{
			"bufferView":15,
			"componentType":5126,
			"count":367,
			"max":[
				1.7516555786132812,
				-0.6735151410102844,
				79.29350280761719
			],
			"min":[
				-43.82667922973633,
				-3.9689223766326904,
				0.9112052917480469
			],
			"type":"VEC3"
		},
		{
			"bufferView":16,
			"componentType":5126,
			"count":367,
			"type":"VEC3"
		},
		{
			"bufferView":17,
			"componentType":5126,
			"count":367,
			"type":"VEC2"
		},
		{
			"bufferView":18,
			"componentType":5123,
			"count":561,
			"type":"SCALAR"
		},
		{
			"bufferView":19,
			"componentType":5126,
			"count":375,
			"max":[
				1.7516555786132812,
				2.6777079105377197,
				79.29350280761719
			],
			"min":[
				-43.82667922973633,
				-2.2206571102142334,
				0.9112052917480469
			],
			"type":"VEC3"
		},
		{
			"bufferView":20,
			"componentType":5126,
			"count":375,
			"type":"VEC3"
		},
		{
			"bufferView":21,
			"componentType":5126,
			"count":375,
			"type":"VEC2"
		},
		{
			"bufferView":22,
			"componentType":5123,
			"count":567,
			"type":"SCALAR"
		},
		{
			"bufferView":23,
			"componentType":5126,
			"count":67,
			"max":[
				47.1259765625,
				-0.5437934994697571,
				81.92623901367188
			],
			"min":[
				-47.125980377197266,
				-1.9935047626495361,
				-2.333667755126953
			],
			"type":"VEC3"
		},
		{
			"bufferView":24,
			"componentType":5126,
			"count":67,
			"type":"VEC3"
		},
		{
			"bufferView":25,
			"componentType":5126,
			"count":67,
			"type":"VEC2"
		},
		{
			"bufferView":26,
			"componentType":5123,
			"count":96,
			"type":"SCALAR"
		},
		{
			"bufferView":27,
			"componentType":5126,
			"count":162,
			"max":[
				45.703575134277344,
				3.9689242839813232,
				80.80621337890625
			],
			"min":[
				-45.703575134277344,
				-2.3168461322784424,
				-1.2136344909667969
			],
			"type":"VEC3"
		},
		{
			"bufferView":28,
			"componentType":5126,
			"count":162,
			"type":"VEC3"
		},
		{
			"bufferView":29,
			"componentType":5126,
			"count":162,
			"type":"VEC2"
		},
		{
			"bufferView":30,
			"componentType":5123,
			"count":228,
			"type":"SCALAR"
		}
	],
	"bufferViews":[
		{
			"buffer":0,
			"byteLength":288,
			"byteOffset":0,
			"target":34962
		},
		{
			"buffer":0,
			"byteLength":288,
			"byteOffset":288,
			"target":34962
		},
		{
			"buffer":0,
			"byteLength":192,
			"byteOffset":576,
			"target":34962
		},
		{
			"buffer":0,
			"byteLength":72,
			"byteOffset":768,
			"target":34963
		},
		{
			"buffer":0,
			"byteLength":576,
			"byteOffset":840,
			"target":34962
		},
		{
			"buffer":0,
			"byteLength":576,
			"byteOffset":1416,
			"target":34962
		},
		{
			"buffer":0,
			"byteLength":384,
			"byteOffset":1992,
			"target":34962
		},
		{
			"buffer":0,
			"byteLength":192,
			"byteOffset":2376,
			"target":34963
		},
		{
			"buffer":0,
			"byteLength":576,
			"byteOffset":2568,
			"target":34962
		},
		{
			"buffer":0,
			"byteLength":576,
			"byteOffset":3144,
			"target":34962
		},
		{
			"buffer":0,
			"byteLength":384,
			"byteOffset":3720,
			"target":34962
		},
		{
			"buffer":0,
			"byteLength":348,
			"byteOffset":4104,
			"target":34962
		},
		{
			"buffer":0,
			"byteLength":348,
			"byteOffset":4452,
			"target":34962
		},
		{
			"buffer":0,
			"byteLength":232,
			"byteOffset":4800,
			"target":34962
		},
		{
			"buffer":0,
			"byteLength":72,
			"byteOffset":5032,
			"target":34963
		},
		{
			"buffer":0,
			"byteLength":4404,
			"byteOffset":5104,
			"target":34962
		},
		{
			"buffer":0,
			"byteLength":4404,
			"byteOffset":9508,
			"target":34962
		},
		{
			"buffer":0,
			"byteLength":2936,
			"byteOffset":13912,
			"target":34962
		},
		{
			"buffer":0,
			"byteLength":1122,
			"byteOffset":16848,
			"target":34963
		},
		{
			"buffer":0,
			"byteLength":4500,
			"byteOffset":17972,
			"target":34962
		},
		{
			"buffer":0,
			"byteLength":4500,
			"byteOffset":22472,
			"target":34962
		},
		{
			"buffer":0,
			"byteLength":3000,
			"byteOffset":26972,
			"target":34962
		},
		{
			"buffer":0,
			"byteLength":1134,
			"byteOffset":29972,
			"target":34963
		},
		{
			"buffer":0,
			"byteLength":804,
			"byteOffset":31108,
			"target":34962
		},
		{
			"buffer":0,
			"byteLength":804,
			"byteOffset":31912,
			"target":34962
		},
		{
			"buffer":0,
			"byteLength":536,
			"byteOffset":32716,
			"target":34962
		},
		{
			"buffer":0,
			"byteLength":192,
			"byteOffset":33252,
			"target":34963
		},
		{
			"buffer":0,
			"byteLength":1944,
			"byteOffset":33444,
			"target":34962
		},
		{
			"buffer":0,
			"byteLength":1944,
			"byteOffset":35388,
			"target":34962
		},
		{
			"buffer":0,
			"byteLength":1296,
			"byteOffset":37332,
			"target":34962
		},
		{
			"buffer":0,
			"byteLength":456,
			"byteOffset":38628,
			"target":34963
		}
	],
	"buffers":[
		{
			"byteLength":39084,
			"uri":"data:application/octet-stream;base64,"
		}
	]
}
