{
	"asset":{
		"generator":"Khronos glTF Blender I/O v3.6.27",
		"version":"2.0"
	},
	"extensionsUsed":[
		"KHR_materials_transmission"
	],
	"scene":0,
	"scenes":[
		{
			"name":"Scene",
			"nodes":[
				10
			]
		}
	],
	"nodes":[
		{
			"mesh":0,
			"name":"Object_6"
		},
		{
			"mesh":1,
			"name":"Object_7"
		},
		{
			"children":[
				0,
				1
			],
			"name":"Cube.001_1",
			"scale":[
				2.312565803527832,
				4.594112873077393,
				0.06841658055782318
			],
			"translation":[
				-2.164860963821411,
				0,
				-0.10223198682069778
			]
		},
		{
			"mesh":2,
			"name":"Object_10"
		},
		{
			"mesh":3,
			"name":"Object_9"
		},
		{
			"children":[
				3,
				4
			],
			"name":"Cube.002_2",
			"scale":[
				2.312565803527832,
				4.594112873077393,
				0.06841658055782318
			],
			"translation":[
				1.666864037513733,
				0,
				0.03721781075000763
			]
		},
		{
			"mesh":4,
			"name":"Object_4"
		},
		{
			"children":[
				6
			],
			"name":"Cube_0",
			"scale":[
				4.776358127593994,
				4.874213218688965,
				0.2167307287454605
			]
		},
		{
			"children":[
				2,
				5,
				7
			],
			"name":"GLTF_SceneRootNode",
			"rotation":[
				0.70710688829422,
				0,
				0,
				0.7071066498756409
			]
		},
		{
			"children":[
				8
			],
			"name":"root"
		},
		{
			"children":[
				9
			],
			"name":"Sketchfab_model",
			"rotation":[
				-0.70710688829422,
				0,
				0,
				0.7071066498756409
			],
			"scale":[
				0.20000000298023224,
				0.20000003278255463,
				0.20000003278255463
			]
		}
	],
	"materials":[
		{
			"doubleSided":true,
			"name":"Material.002",
			"pbrMetallicRoughness":{
				"baseColorFactor":[
					0.006418069824576378,
					0.006418069824576378,
					0.006418069824576378,
					1
				],
				"metallicFactor":0,
				"roughnessFactor":0.5
			}
		},
		{
			"alphaMode":"BLEND",
			"doubleSided":true,
			"extensions":{
				"KHR_materials_transmission":{
					"transmissionFactor":1
				}
			},
			"name":"Material.003",
			"pbrMetallicRoughness":{
				"baseColorFactor":[
					0.800000011920929,
					0.800000011920929,
					0.800000011920929,
					0.25
				],
				"metallicFactor":0,
				"roughnessFactor":0
			}
		},
		{
			"doubleSided":true,
			"name":"Material.001",
			"pbrMetallicRoughness":{
				"baseColorFactor":[
					0.013376899994909763,
					0.013376899994909763,
					0.013376899994909763,
					1
				],
				"metallicFactor":0,
				"roughnessFactor":0.5
			}
		}
	],
	"meshes":[
		{
			"name":"Object_1.001",
			"primitives":[
				{
					"attributes":{
						"POSITION":0,
						"NORMAL":1,
						"TEXCOORD_0":2
					},
					"indices":3,
					"material":0
				}
			]
		},
		{
			"name":"Object_2.001",
			"primitives":[
				{
					"attributes":{
						"POSITION":4,
						"NORMAL":5,
						"TEXCOORD_0":6
					},
					"indices":7,
					"material":1
				}
			]
		},
		{
			"name":"Object_4.001",
			"primitives":[
				{
					"attributes":{
						"POSITION":8,
						"NORMAL":9,
						"TEXCOORD_0":10
					},
					"indices":7,
					"material":1
				}
			]
		},
		{
			"name":"Object_3.001",
			"primitives":[
				{
					"attributes":{
						"POSITION":11,
						"NORMAL":12,
						"TEXCOORD_0":13
					},
					"indices":3,
					"material":0
				}
			]
		},
		{
			"name":"Object_0.001",
			"primitives":[
				{
					"attributes":{
						"POSITION":14,
						"NORMAL":15,
						"TEXCOORD_0":16
					},
					"indices":17,
					"material":2
				}
			]
		}
	],
	"accessors":[
		{
			"bufferView":0,
			"componentType":5126,
			"count":56,
			"max":[
				1,
				1,
				1
			],
			"min":[
				-1,
				-1,
				-1
			],
			"type":"VEC3"
		},
		{
			"bufferView":1,
			"componentType":5126,
			"count":56,
			"type":"VEC3"
		},
		{
			"bufferView":2,
			"componentType":5126,
			"count":56,
			"type":"VEC2"
		},
		{
			"bufferView":3,
			"componentType":5123,
			"count":120,
			"type":"SCALAR"
		},
		{
			"bufferView":4,
			"componentType":5126,
			"count":4,
			"max":[
				0.9695010185241699,
				0.9786868691444397,
				-0.03827261924743652
			],
			"min":[
				-0.9695010185241699,
				-0.976019024848938,
				-0.03827261924743652
			],
			"type":"VEC3"
		},
		{
			"bufferView":5,
			"componentType":5126,
			"count":4,
			"type":"VEC3"
		},
		{
			"bufferView":6,
			"componentType":5126,
			"count":4,
			"type":"VEC2"
		},
		{
			"bufferView":7,
			"componentType":5123,
			"count":6,
			"type":"SCALAR"
		},
		{
			"bufferView":8,
			"componentType":5126,
			"count":4,
			"max":[
				0.9695010185241699,
				0.9786868691444397,
				-0.03827261924743652
			],
			"min":[
				-0.9695010185241699,
				-0.976019024848938,
				-0.03827261924743652
			],
			"type":"VEC3"
		},
		{
			"bufferView":9,
			"componentType":5126,
			"count":4,
			"type":"VEC3"
		},
		{
			"bufferView":10,
			"componentType":5126,
			"count":4,
			"type":"VEC2"
		},
		{
			"bufferView":11,
			"componentType":5126,
			"count":56,
			"max":[
				1,
				1,
				1
			],
			"min":[
				-1,
				-1,
				-1
			],
			"type":"VEC3"
		},
		{
			"bufferView":12,
			"componentType":5126,
			"count":56,
			"type":"VEC3"
		},
		{
			"bufferView":13,
			"componentType":5126,
			"count":56,
			"type":"VEC2"
		},
		{
			"bufferView":14,
			"componentType":5126,
			"count":48,
			"max":[
				1,
				1,
				1
			],
			"min":[
				-1,
				-1,
				-1
			],
			"type":"VEC3"
		},
		{
			"bufferView":15,
			"componentType":5126,
			"count":48,
			"type":"VEC3"
		},
		{
			"bufferView":16,
			"componentType":5126,
			"count":48,
			"type":"VEC2"
		},
		{
			"bufferView":17,
			"componentType":5123,
			"count":96,
			"type":"SCALAR"
		}
	],
	"bufferViews":[
		{
			"buffer":0,
			"byteLength":672,
			"byteOffset":0,
			"target":34962
		},
		{
			"buffer":0,
			"byteLength":672,
			"byteOffset":672,
			"target":34962
		},
		{
			"buffer":0,
			"byteLength":448,
			"byteOffset":1344,
			"target":34962
		},
		{
			"buffer":0,
			"byteLength":240,
			"byteOffset":1792,
			"target":34963
		},
		{
			"buffer":0,
			"byteLength":48,
			"byteOffset":2032,
			"target":34962
		},
		{
			"buffer":0,
			"byteLength":48,
			"byteOffset":2080,
			"target":34962
		},
		{
			"buffer":0,
			"byteLength":32,
			"byteOffset":2128,
			"target":34962
		},
		{
			"buffer":0,
			"byteLength":12,
			"byteOffset":2160,
			"target":34963
		},
		{
			"buffer":0,
			"byteLength":48,
			"byteOffset":2172,
			"target":34962
		},
		{
			"buffer":0,
			"byteLength":48,
			"byteOffset":2220,
			"target":34962
		},
		{
			"buffer":0,
			"byteLength":32,
			"byteOffset":2268,
			"target":34962
		},
		{
			"buffer":0,
			"byteLength":672,
			"byteOffset":2300,
			"target":34962
		},
		{
			"buffer":0,
			"byteLength":672,
			"byteOffset":2972,
			"target":34962
		},
		{
			"buffer":0,
			"byteLength":448,
			"byteOffset":3644,
			"target":34962
		},
		{
			"buffer":0,
			"byteLength":576,
			"byteOffset":4092,
			"target":34962
		},
		{
			"buffer":0,
			"byteLength":576,
			"byteOffset":4668,
			"target":34962
		},
		{
			"buffer":0,
			"byteLength":384,
			"byteOffset":5244,
			"target":34962
		},
		{
			"buffer":0,
			"byteLength":192,
			"byteOffset":5628,
			"target":34963
		}
	],
	"buffers":[
		{
			"byteLength":5820,
			"uri":"data:application/octet-stream;base64,"
		}
	]
}
