{
	"asset":{
		"generator":"Khronos glTF Blender I/O v3.6.27",
		"version":"2.0"
	},
	"scene":0,
	"scenes":[
		{
			"name":"Scene",
			"nodes":[
				15
			]
		}
	],
	"nodes":[
		{
			"name":"A38_Window_120x150_062",
			"rotation":[
				0,
				0,
				0.7071070671081543,
				0.7071064710617065
			],
			"translation":[
				-1.0143242434423883e-05,
				0,
				-49.999996185302734
			]
		},
		{
			"mesh":0,
			"name":"A38_Window_WC_007_Mat_A38_Window_Frame_001_0"
		},
		{
			"mesh":1,
			"name":"A38_Window_WC_007_Mat_A38_Window_Frame_002_0"
		},
		{
			"mesh":2,
			"name":"A38_Window_WC_007_Mat_A38_Window_Glass_001_0"
		},
		{
			"mesh":3,
			"name":"A38_Window_WC_007_Mat_A38_Window_Handbar_001_0"
		},
		{
			"mesh":4,
			"name":"A38_Window_WC_007_Mat_A38_Window_Noise_Glass_001_0"
		},
		{
			"mesh":5,
			"name":"A38_Window_WC_007_Mat_A38_Window_Plastic_001_0"
		},
		{
			"mesh":6,
			"name":"A38_Window_WC_007_Mat_A38_Window_Rubber_001_0"
		},
		{
			"mesh":7,
			"name":"A38_Window_WC_007_Mat_A38_Window_Wall_001_0"
		},
		{
			"children":[
				1,
				2,
				3,
				4,
				5,
				6,
				7,
				8
			],
			"name":"A38_Window_WC_007",
			"translation":[
				-100.21968078613281,
				-1.1947116945520975e-05,
				-49.999996185302734
			]
		},
		{
			"children":[
				0,
				9
			],
			"name":"FSZ_Line_Wall_Outer1",
			"translation":[
				0,
				0,
				3.814697265625e-06
			]
		},
		{
			"children":[
				10
			],
			"name":"A38_Main_Basement_001",
			"rotation":[
				0,
				0,
				-0.7071068286895752,
				0.7071067094802856
			],
			"translation":[
				0,
				-3.6687088140752167e-06,
				49.999996185302734
			]
		},
		{
			"children":[
				11
			],
			"name":"A38_Entrance_Stairs_001",
			"rotation":[
				-0.5,
				0.5,
				0.5,
				0.5
			]
		},
		{
			"children":[
				12
			],
			"name":"RootNode"
		},
		{
			"children":[
				13
			],
			"name":"9e372f30a8974bb0b4b83728832ed115.fbx",
			"rotation":[
				0.70710688829422,
				0,
				0,
				0.7071066498756409
			]
		},
		{
			"children":[
				14
			],
			"name":"Sketchfab_model",
			"rotation":[
				-0.70710688829422,
				0,
				0,
				0.7071066498756409
			],
			"scale":[
				0.009999999776482582,
				0.010000000707805157,
				0.010000000707805157
			]
		}
	],
	"materials":[
		{
			"doubleSided":true,
			"name":"Mat_A38_Window_Frame_001",
			"pbrMetallicRoughness":{
				"baseColorFactor":[
					0.756862998008728,
					0.756862998008728,
					0.756862998008728,
					1
				],
				"metallicFactor":0.38586127758026123,
				"roughnessFactor":0.8929713368415833
			}
		},
		{
			"doubleSided":true,
			"name":"Mat_A38_Window_Frame_002",
			"pbrMetallicRoughness":{
				"baseColorFactor":[
					0.1450980007648468,
					0.1450980007648468,
					0.1450980007648468,
					1
				],
				"metallicFactor":0.4468368887901306,
				"roughnessFactor":0.7604801654815674
			}
		},
		{
			"alphaMode":"BLEND",
			"doubleSided":true,
			"name":"Mat_A38_Window_Glass_001",
			"pbrMetallicRoughness":{
				"baseColorFactor":[
					0.5882350206375122,
					0.6588240265846252,
					0.7058820128440857,
					0.1114710345864296
				],
				"metallicFactor":0.9102514982223511,
				"roughnessFactor":0
			}
		},
		{
			"doubleSided":true,
			"name":"Mat_A38_Window_Handbar_001",
			"pbrMetallicRoughness":{
				"baseColorFactor":[
					0.5450980067253113,
					0.5450980067253113,
					0.5450980067253113,
					1
				],
				"metallicFactor":0,
				"roughnessFactor":0.8791684508323669
			}
		},
		{
			"alphaMode":"BLEND",
			"doubleSided":true,
			"name":"Mat_A38_Window_Noise_Glass_001",
			"pbrMetallicRoughness":{
				"baseColorFactor":[
					0.5882350206375122,
					0.6588240265846252,
					0.7058820128440857,
					0.699999988079071
				],
				"metallicFactor":0.7883002758026123,
				"roughnessFactor":0
			}
		},
		{
			"doubleSided":true,
			"name":"Mat_A38_Window_Plastic_001",
			"pbrMetallicRoughness":{
				"baseColorFactor":[
					0.7450979948043823,
					0.7450979948043823,
					0.7450979948043823,
					1
				],
				"metallicFactor":0,
				"roughnessFactor":0.8727207779884338
			}
		},
		{
			"doubleSided":true,
			"name":"Mat_A38_Window_Rubber_001",
			"pbrMetallicRoughness":{
				"baseColorFactor":[
					0.08627449721097946,
					0.08627449721097946,
					0.08627449721097946,
					1
				],
				"metallicFactor":0,
				"roughnessFactor":0.8812443017959595
			}
		},
		{
			"doubleSided":true,
			"name":"Mat_A38_Window_Wall_001",
			"pbrMetallicRoughness":{
				"baseColorFactor":[
					0.9529410004615784,
					0.9529410004615784,
					0.9529410004615784,
					1
				],
				"metallicFactor":0,
				"roughnessFactor":0.8929713368415833
			}
		}
	],
	"meshes":[
		{
			"name":"A38_Window_WC_007_Mat_A38_Window_Frame_001_0",
			"primitives":[
				{
					"attributes":{
						"POSITION":0,
						"NORMAL":1,
						"TEXCOORD_0":2
					},
					"indices":3,
					"material":0
				}
			]
		},
		{
			"name":"A38_Window_WC_007_Mat_A38_Window_Frame_002_0",
			"primitives":[
				{
					"attributes":{
						"POSITION":4,
						"NORMAL":5,
						"TEXCOORD_0":6
					},
					"indices":7,
					"material":1
				}
			]
		},
		{
			"name":"A38_Window_WC_007_Mat_A38_Window_Glass_001_0",
			"primitives":[
				{
					"attributes":{
						"POSITION":8,
						"NORMAL":9,
						"TEXCOORD_0":10
					},
					"indices":11,
					"material":2
				}
			]
		},
		{
			"name":"A38_Window_WC_007_Mat_A38_Window_Handbar_001_0",
			"primitives":[
				{
					"attributes":{
						"POSITION":12,
						"NORMAL":13,
						"TEXCOORD_0":14
					},
					"indices":15,
					"material":3
				}
			]
		},
		{
			"name":"A38_Window_WC_007_Mat_A38_Window_Noise_Glass_001_0",
			"primitives":[
				{
					"attributes":{
						"POSITION":16,
						"NORMAL":17,
						"TEXCOORD_0":18
					},
					"indices":11,
					"material":4
				}
			]
		},
		{
			"name":"A38_Window_WC_007_Mat_A38_Window_Plastic_001_0",
			"primitives":[
				{
					"attributes":{
						"POSITION":19,
						"NORMAL":20,
						"TEXCOORD_0":21
					},
					"indices":22,
					"material":5
				}
			]
		},
		{
			"name":"A38_Window_WC_007_Mat_A38_Window_Rubber_001_0",
			"primitives":[
				{
					"attributes":{
						"POSITION":23,
						"NORMAL":24,
						"TEXCOORD_0":25
					},
					"indices":26,
					"material":6
				}
			]
		},
		{
			"name":"A38_Window_WC_007_Mat_A38_Window_Wall_001_0",
			"primitives":[
				{
					"attributes":{
						"POSITION":27,
						"NORMAL":28,
						"TEXCOORD_0":29
					},
					"indices":30,
					"material":7
				}
			]
		}
	],
	"accessors":[
		{
			"bufferView":0,
			"componentType":5126,
			"count":104,
			"max":[
				20,
				5,
				145
			],
			"min":[
				-20,
				2,
				5
			],
			"type":"VEC3"
		},
		{
			"bufferView":1,
			"componentType":5126,
			"count":104,
			"type":"VEC3"
		},
		{
			"bufferView":2,
			"componentType":5126,
			"count":104,
			"type":"VEC2"
		},
		{
			"bufferView":3,
			"componentType":5123,
			"count":192,
			"type":"SCALAR"
		},
		{
			"bufferView":4,
			"componentType":5126,
			"count":92,
			"max":[
				23,
				8,
				148
			],
			"min":[
				-23,
				5,
				2
			],
			"type":"VEC3"
		},
		{
			"bufferView":5,
			"componentType":5126,
			"count":92,
			"type":"VEC3"
		},
		{
			"bufferView":6,
			"componentType":5126,
			"count":92,
			"type":"VEC2"
		},
		{
			"bufferView":7,
			"componentType":5123,
			"count":204,
			"type":"SCALAR"
		},
		{
			"bufferView":8,
			"componentType":5126,
			"count":24,
			"max":[
				19,
				4,
				142
			],
			"min":[
				-19,
				3,
				108
			],
			"type":"VEC3"
		},
		{
			"bufferView":9,
			"componentType":5126,
			"count":24,
			"type":"VEC3"
		},
		{
			"bufferView":10,
			"componentType":5126,
			"count":24,
			"type":"VEC2"
		},
		{
			"bufferView":11,
			"componentType":5123,
			"count":36,
			"type":"SCALAR"
		},
		{
			"bufferView":12,
			"componentType":5126,
			"count":593,
			"max":[
				-17.530071258544922,
				0.5,
				61.22247314453125
			],
			"min":[
				-19.530075073242188,
				-3.40985107421875,
				46.31261444091797
			],
			"type":"VEC3"
		},
		{
			"bufferView":13,
			"componentType":5126,
			"count":593,
			"type":"VEC3"
		},
		{
			"bufferView":14,
			"componentType":5126,
			"count":593,
			"type":"VEC2"
		},
		{
			"bufferView":15,
			"componentType":5123,
			"count":3156,
			"type":"SCALAR"
		},
		{
			"bufferView":16,
			"componentType":5126,
			"count":24,
			"max":[
				19,
				4,
				102
			],
			"min":[
				-19,
				3,
				8
			],
			"type":"VEC3"
		},
		{
			"bufferView":17,
			"componentType":5126,
			"count":24,
			"type":"VEC3"
		},
		{
			"bufferView":18,
			"componentType":5126,
			"count":24,
			"type":"VEC2"
		},
		{
			"bufferView":19,
			"componentType":5126,
			"count":182,
			"max":[
				21.400009155273438,
				3.399993896484375,
				99.5
			],
			"min":[
				-19.91683578491211,
				0.5,
				10.5
			],
			"type":"VEC3"
		},
		{
			"bufferView":20,
			"componentType":5126,
			"count":182,
			"type":"VEC3"
		},
		{
			"bufferView":21,
			"componentType":5126,
			"count":182,
			"type":"VEC2"
		},
		{
			"bufferView":22,
			"componentType":5123,
			"count":432,
			"type":"SCALAR"
		},
		{
			"bufferView":23,
			"componentType":5126,
			"count":96,
			"max":[
				17,
				4.4375,
				142
			],
			"min":[
				-17,
				2.5625,
				8
			],
			"type":"VEC3"
		},
		{
			"bufferView":24,
			"componentType":5126,
			"count":96,
			"type":"VEC3"
		},
		{
			"bufferView":25,
			"componentType":5126,
			"count":96,
			"type":"VEC2"
		},
		{
			"bufferView":26,
			"componentType":5123,
			"count":144,
			"type":"SCALAR"
		},
		{
			"bufferView":27,
			"componentType":5126,
			"count":52,
			"max":[
				25,
				10,
				150
			],
			"min":[
				-25,
				-10,
				0
			],
			"type":"VEC3"
		},
		{
			"bufferView":28,
			"componentType":5126,
			"count":52,
			"type":"VEC3"
		},
		{
			"bufferView":29,
			"componentType":5126,
			"count":52,
			"type":"VEC2"
		},
		{
			"bufferView":30,
			"componentType":5123,
			"count":96,
			"type":"SCALAR"
		}
	],
	"bufferViews":[
		{
			"buffer":0,
			"byteLength":1248,
			"byteOffset":0,
			"target":34962
		},
		{
			"buffer":0,
			"byteLength":1248,
			"byteOffset":1248,
			"target":34962
		},
		{
			"buffer":0,
			"byteLength":832,
			"byteOffset":2496,
			"target":34962
		},
		{
			"buffer":0,
			"byteLength":384,
			"byteOffset":3328,
			"target":34963
		},
		{
			"buffer":0,
			"byteLength":1104,
			"byteOffset":3712,
			"target":34962
		},
		{
			"buffer":0,
			"byteLength":1104,
			"byteOffset":4816,
			"target":34962
		},
		{
			"buffer":0,
			"byteLength":736,
			"byteOffset":5920,
			"target":34962
		},
		{
			"buffer":0,
			"byteLength":408,
			"byteOffset":6656,
			"target":34963
		},
		{
			"buffer":0,
			"byteLength":288,
			"byteOffset":7064,
			"target":34962
		},
		{
			"buffer":0,
			"byteLength":288,
			"byteOffset":7352,
			"target":34962
		},
		{
			"buffer":0,
			"byteLength":192,
			"byteOffset":7640,
			"target":34962
		},
		{
			"buffer":0,
			"byteLength":72,
			"byteOffset":7832,
			"target":34963
		},
		{
			"buffer":0,
			"byteLength":7116,
			"byteOffset":7904,
			"target":34962
		},
		{
			"buffer":0,
			"byteLength":7116,
			"byteOffset":15020,
			"target":34962
		},
		{
			"buffer":0,
			"byteLength":4744,
			"byteOffset":22136,
			"target":34962
		},
		{
			"buffer":0,
			"byteLength":6312,
			"byteOffset":26880,
			"target":34963
		},
		{
			"buffer":0,
			"byteLength":288,
			"byteOffset":33192,
			"target":34962
		},
		{
			"buffer":0,
			"byteLength":288,
			"byteOffset":33480,
			"target":34962
		},
		{
			"buffer":0,
			"byteLength":192,
			"byteOffset":33768,
			"target":34962
		},
		{
			"buffer":0,
			"byteLength":2184,
			"byteOffset":33960,
			"target":34962
		},
		{
			"buffer":0,
			"byteLength":2184,
			"byteOffset":36144,
			"target":34962
		},
		{
			"buffer":0,
			"byteLength":1456,
			"byteOffset":38328,
			"target":34962
		},
		{
			"buffer":0,
			"byteLength":864,
			"byteOffset":39784,
			"target":34963
		},
		{
			"buffer":0,
			"byteLength":1152,
			"byteOffset":40648,
			"target":34962
		},
		{
			"buffer":0,
			"byteLength":1152,
			"byteOffset":41800,
			"target":34962
		},
		{
			"buffer":0,
			"byteLength":768,
			"byteOffset":42952,
			"target":34962
		},
		{
			"buffer":0,
			"byteLength":288,
			"byteOffset":43720,
			"target":34963
		},
		{
			"buffer":0,
			"byteLength":624,
			"byteOffset":44008,
			"target":34962
		},
		{
			"buffer":0,
			"byteLength":624,
			"byteOffset":44632,
			"target":34962
		},
		{
			"buffer":0,
			"byteLength":416,
			"byteOffset":45256,
			"target":34962
		},
		{
			"buffer":0,
			"byteLength":192,
			"byteOffset":45672,
			"target":34963
		}
	],
	"buffers":[
		{
			"byteLength":45864,
			"uri":"data:application/octet-stream;base64,"
		}
	]
}
