{
	"asset":{
		"generator":"Khronos glTF Blender I/O v3.6.27",
		"version":"2.0"
	},
	"scene":0,
	"scenes":[
		{
			"name":"Scene",
			"nodes":[
				14
			]
		}
	],
	"nodes":[
		{
			"mesh":0,
			"name":"A38_Window_120x150_062_Mat_A38_Window_Frame_001_0"
		},
		{
			"mesh":1,
			"name":"A38_Window_120x150_062_Mat_A38_Window_Frame_002_0"
		},
		{
			"mesh":2,
			"name":"A38_Window_120x150_062_Mat_A38_Window_FrameX_003_0"
		},
		{
			"mesh":3,
			"name":"A38_Window_120x150_062_Mat_A38_Window_Glass_001_0"
		},
		{
			"mesh":4,
			"name":"A38_Window_120x150_062_Mat_A38_Window_Handbar_001_0"
		},
		{
			"mesh":5,
			"name":"A38_Window_120x150_062_Mat_A38_Window_Plastic_001_0"
		},
		{
			"mesh":6,
			"name":"A38_Window_120x150_062_Mat_A38_Window_Rubber_001_0"
		},
		{
			"mesh":7,
			"name":"A38_Window_120x150_062_Mat_A38_Window_Wall_001_0"
		},
		{
			"children":[
				0,
				1,
				2,
				3,
				4,
				5,
				6,
				7
			],
			"name":"A38_Window_120x150_062",
			"rotation":[
				0,
				0,
				0.7071070671081543,
				0.7071064710617065
			],
			"translation":[
				-1.0143242434423883e-05,
				0,
				-49.999996185302734
			]
		},
		{
			"children":[
				8
			],
			"name":"FSZ_Line_Wall_Outer1",
			"translation":[
				0,
				0,
				3.814697265625e-06
			]
		},
		{
			"children":[
				9
			],
			"name":"A38_Main_Basement_001",
			"rotation":[
				0,
				0,
				-0.7071068286895752,
				0.7071067094802856
			],
			"translation":[
				0,
				-3.6687088140752167e-06,
				49.999996185302734
			]
		},
		{
			"children":[
				10
			],
			"name":"A38_Entrance_Stairs_001",
			"rotation":[
				-0.5,
				0.5,
				0.5,
				0.5
			]
		},
		{
			"children":[
				11
			],
			"name":"RootNode"
		},
		{
			"children":[
				12
			],
			"name":"9e372f30a8974bb0b4b83728832ed115.fbx",
			"rotation":[
				0.70710688829422,
				0,
				0,
				0.7071066498756409
			]
		},
		{
			"children":[
				13
			],
			"name":"Sketchfab_model",
			"rotation":[
				-0.70710688829422,
				0,
				0,
				0.7071066498756409
			],
			"scale":[
				0.009999999776482582,
				0.010000000707805157,
				0.010000000707805157
			]
		}
	],
	"materials":[
		{
			"doubleSided":true,
			"name":"Mat_A38_Window_Frame_001",
			"pbrMetallicRoughness":{
				"baseColorFactor":[
					0.756862998008728,
					0.756862998008728,
					0.756862998008728,
					1
				],
				"metallicFactor":0.38586127758026123,
				"roughnessFactor":0.8929713368415833
			}
		},
		{
			"doubleSided":true,
			"name":"Mat_A38_Window_Frame_002",
			"pbrMetallicRoughness":{
				"baseColorFactor":[
					0.1450980007648468,
					0.1450980007648468,
					0.1450980007648468,
					1
				],
				"metallicFactor":0.4468368887901306,
				"roughnessFactor":0.7604801654815674
			}
		},
		{
			"doubleSided":true,
			"name":"Mat_A38_Window_FrameX_003",
			"pbrMetallicRoughness":{
				"baseColorFactor":[
					0.8862749934196472,
					0.8784310221672058,
					0.8705880045890808,
					1
				],
				"metallicFactor":0,
				"roughnessFactor":0.6141387224197388
			}
		},
		{
			"alphaMode":"BLEND",
			"doubleSided":true,
			"name":"Mat_A38_Window_Glass_001",
			"pbrMetallicRoughness":{
				"baseColorFactor":[
					0.5882350206375122,
					0.6588240265846252,
					0.7058820128440857,
					0.1114710345864296
				],
				"metallicFactor":0.9102514982223511,
				"roughnessFactor":0
			}
		},
		{
			"doubleSided":true,
			"name":"Mat_A38_Window_Handbar_001",
			"pbrMetallicRoughness":{
				"baseColorFactor":[
					0.5450980067253113,
					0.5450980067253113,
					0.5450980067253113,
					1
				],
				"metallicFactor":0,
				"roughnessFactor":0.8791684508323669
			}
		},
		{
			"doubleSided":true,
			"name":"Mat_A38_Window_Plastic_001",
			"pbrMetallicRoughness":{
				"baseColorFactor":[
					0.7450979948043823,
					0.7450979948043823,
					0.7450979948043823,
					1
				],
				"metallicFactor":0,
				"roughnessFactor":0.8727207779884338
			}
		},
		{
			"doubleSided":true,
			"name":"Mat_A38_Window_Rubber_001",
			"pbrMetallicRoughness":{
				"baseColorFactor":[
					0.08627449721097946,
					0.08627449721097946,
					0.08627449721097946,
					1
				],
				"metallicFactor":0,
				"roughnessFactor":0.8812443017959595
			}
		},
		{
			"doubleSided":true,
			"name":"Mat_A38_Window_Wall_001",
			"pbrMetallicRoughness":{
				"baseColorFactor":[
					0.9529410004615784,
					0.9529410004615784,
					0.9529410004615784,
					1
				],
				"metallicFactor":0,
				"roughnessFactor":0.8929713368415833
			}
		}
	],
	"meshes":[
		{
			"name":"A38_Window_120x150_062_Mat_A38_Window_Frame_001_0",
			"primitives":[
				{
					"attributes":{
						"POSITION":0,
						"NORMAL":1,
						"TEXCOORD_0":2
					},
					"indices":3,
					"material":0
				}
			]
		},
		{
			"name":"A38_Window_120x150_062_Mat_A38_Window_Frame_002_0",
			"primitives":[
				{
					"attributes":{
						"POSITION":4,
						"NORMAL":5,
						"TEXCOORD_0":6
					},
					"indices":3,
					"material":1
				}
			]
		},
		{
			"name":"A38_Window_120x150_062_Mat_A38_Window_FrameX_003_0",
			"primitives":[
				{
					"attributes":{
						"POSITION":7,
						"NORMAL":8,
						"TEXCOORD_0":9
					},
					"indices":10,
					"material":2
				}
			]
		},
		{
			"name":"A38_Window_120x150_062_Mat_A38_Window_Glass_001_0",
			"primitives":[
				{
					"attributes":{
						"POSITION":11,
						"NORMAL":12,
						"TEXCOORD_0":13
					},
					"indices":14,
					"material":3
				}
			]
		},
		{
			"name":"A38_Window_120x150_062_Mat_A38_Window_Handbar_001_0",
			"primitives":[
				{
					"attributes":{
						"POSITION":15,
						"NORMAL":16,
						"TEXCOORD_0":17
					},
					"indices":18,
					"material":4
				}
			]
		},
		{
			"name":"A38_Window_120x150_062_Mat_A38_Window_Plastic_001_0",
			"primitives":[
				{
					"attributes":{
						"POSITION":19,
						"NORMAL":20,
						"TEXCOORD_0":21
					},
					"indices":22,
					"material":5
				}
			]
		},
		{
			"name":"A38_Window_120x150_062_Mat_A38_Window_Rubber_001_0",
			"primitives":[
				{
					"attributes":{
						"POSITION":23,
						"NORMAL":24,
						"TEXCOORD_0":25
					},
					"indices":26,
					"material":6
				}
			]
		},
		{
			"name":"A38_Window_120x150_062_Mat_A38_Window_Wall_001_0",
			"primitives":[
				{
					"attributes":{
						"POSITION":27,
						"NORMAL":28,
						"TEXCOORD_0":29
					},
					"indices":3,
					"material":7
				}
			]
		}
	],
	"accessors":[
		{
			"bufferView":0,
			"componentType":5126,
			"count":56,
			"max":[
				7,
				54,
				144
			],
			"min":[
				0,
				-54,
				6
			],
			"type":"VEC3"
		},
		{
			"bufferView":1,
			"componentType":5126,
			"count":56,
			"type":"VEC3"
		},
		{
			"bufferView":2,
			"componentType":5126,
			"count":56,
			"type":"VEC2"
		},
		{
			"bufferView":3,
			"componentType":5123,
			"count":96,
			"type":"SCALAR"
		},
		{
			"bufferView":4,
			"componentType":5126,
			"count":56,
			"max":[
				9,
				57,
				147
			],
			"min":[
				7,
				-57,
				3
			],
			"type":"VEC3"
		},
		{
			"bufferView":5,
			"componentType":5126,
			"count":56,
			"type":"VEC3"
		},
		{
			"bufferView":6,
			"componentType":5126,
			"count":56,
			"type":"VEC2"
		},
		{
			"bufferView":7,
			"componentType":5126,
			"count":282,
			"max":[
				5.26270866394043,
				50,
				140
			],
			"min":[
				1.7372914552688599,
				-50,
				10
			],
			"type":"VEC3"
		},
		{
			"bufferView":8,
			"componentType":5126,
			"count":282,
			"type":"VEC3"
		},
		{
			"bufferView":9,
			"componentType":5126,
			"count":282,
			"type":"VEC2"
		},
		{
			"bufferView":10,
			"componentType":5123,
			"count":492,
			"type":"SCALAR"
		},
		{
			"bufferView":11,
			"componentType":5126,
			"count":24,
			"max":[
				4,
				50,
				140
			],
			"min":[
				3,
				-50,
				10
			],
			"type":"VEC3"
		},
		{
			"bufferView":12,
			"componentType":5126,
			"count":24,
			"type":"VEC3"
		},
		{
			"bufferView":13,
			"componentType":5126,
			"count":24,
			"type":"VEC2"
		},
		{
			"bufferView":14,
			"componentType":5123,
			"count":36,
			"type":"SCALAR"
		},
		{
			"bufferView":15,
			"componentType":5126,
			"count":593,
			"max":[
				-1.4999996423721313,
				52.999996185302734,
				76
			],
			"min":[
				-5.409862995147705,
				50.999996185302734,
				61.09014129638672
			],
			"type":"VEC3"
		},
		{
			"bufferView":16,
			"componentType":5126,
			"count":593,
			"type":"VEC3"
		},
		{
			"bufferView":17,
			"componentType":5126,
			"count":593,
			"type":"VEC2"
		},
		{
			"bufferView":18,
			"componentType":5123,
			"count":3156,
			"type":"SCALAR"
		},
		{
			"bufferView":19,
			"componentType":5126,
			"count":190,
			"max":[
				1.399999976158142,
				53.386756896972656,
				139
			],
			"min":[
				-1.5000003576278687,
				-55.40000534057617,
				10
			],
			"type":"VEC3"
		},
		{
			"bufferView":20,
			"componentType":5126,
			"count":190,
			"type":"VEC3"
		},
		{
			"bufferView":21,
			"componentType":5126,
			"count":190,
			"type":"VEC2"
		},
		{
			"bufferView":22,
			"componentType":5123,
			"count":432,
			"type":"SCALAR"
		},
		{
			"bufferView":23,
			"componentType":5126,
			"count":288,
			"max":[
				4.601694583892822,
				49,
				139
			],
			"min":[
				2.398305654525757,
				-49,
				11
			],
			"type":"VEC3"
		},
		{
			"bufferView":24,
			"componentType":5126,
			"count":288,
			"type":"VEC3"
		},
		{
			"bufferView":25,
			"componentType":5126,
			"count":288,
			"type":"VEC2"
		},
		{
			"bufferView":26,
			"componentType":5123,
			"count":432,
			"type":"SCALAR"
		},
		{
			"bufferView":27,
			"componentType":5126,
			"count":56,
			"max":[
				10,
				60.000003814697266,
				150
			],
			"min":[
				-10,
				-60.000003814697266,
				0
			],
			"type":"VEC3"
		},
		{
			"bufferView":28,
			"componentType":5126,
			"count":56,
			"type":"VEC3"
		},
		{
			"bufferView":29,
			"componentType":5126,
			"count":56,
			"type":"VEC2"
		}
	],
	"bufferViews":[
		{
			"buffer":0,
			"byteLength":672,
			"byteOffset":0,
			"target":34962
		},
		{
			"buffer":0,
			"byteLength":672,
			"byteOffset":672,
			"target":34962
		},
		{
			"buffer":0,
			"byteLength":448,
			"byteOffset":1344,
			"target":34962
		},
		{
			"buffer":0,
			"byteLength":192,
			"byteOffset":1792,
			"target":34963
		},
		{
			"buffer":0,
			"byteLength":672,
			"byteOffset":1984,
			"target":34962
		},
		{
			"buffer":0,
			"byteLength":672,
			"byteOffset":2656,
			"target":34962
		},
		{
			"buffer":0,
			"byteLength":448,
			"byteOffset":3328,
			"target":34962
		},
		{
			"buffer":0,
			"byteLength":3384,
			"byteOffset":3776,
			"target":34962
		},
		{
			"buffer":0,
			"byteLength":3384,
			"byteOffset":7160,
			"target":34962
		},
		{
			"buffer":0,
			"byteLength":2256,
			"byteOffset":10544,
			"target":34962
		},
		{
			"buffer":0,
			"byteLength":984,
			"byteOffset":12800,
			"target":34963
		},
		{
			"buffer":0,
			"byteLength":288,
			"byteOffset":13784,
			"target":34962
		},
		{
			"buffer":0,
			"byteLength":288,
			"byteOffset":14072,
			"target":34962
		},
		{
			"buffer":0,
			"byteLength":192,
			"byteOffset":14360,
			"target":34962
		},
		{
			"buffer":0,
			"byteLength":72,
			"byteOffset":14552,
			"target":34963
		},
		{
			"buffer":0,
			"byteLength":7116,
			"byteOffset":14624,
			"target":34962
		},
		{
			"buffer":0,
			"byteLength":7116,
			"byteOffset":21740,
			"target":34962
		},
		{
			"buffer":0,
			"byteLength":4744,
			"byteOffset":28856,
			"target":34962
		},
		{
			"buffer":0,
			"byteLength":6312,
			"byteOffset":33600,
			"target":34963
		},
		{
			"buffer":0,
			"byteLength":2280,
			"byteOffset":39912,
			"target":34962
		},
		{
			"buffer":0,
			"byteLength":2280,
			"byteOffset":42192,
			"target":34962
		},
		{
			"buffer":0,
			"byteLength":1520,
			"byteOffset":44472,
			"target":34962
		},
		{
			"buffer":0,
			"byteLength":864,
			"byteOffset":45992,
			"target":34963
		},
		{
			"buffer":0,
			"byteLength":3456,
			"byteOffset":46856,
			"target":34962
		},
		{
			"buffer":0,
			"byteLength":3456,
			"byteOffset":50312,
			"target":34962
		},
		{
			"buffer":0,
			"byteLength":2304,
			"byteOffset":53768,
			"target":34962
		},
		{
			"buffer":0,
			"byteLength":864,
			"byteOffset":56072,
			"target":34963
		},
		{
			"buffer":0,
			"byteLength":672,
			"byteOffset":56936,
			"target":34962
		},
		{
			"buffer":0,
			"byteLength":672,
			"byteOffset":57608,
			"target":34962
		},
		{
			"buffer":0,
			"byteLength":448,
			"byteOffset":58280,
			"target":34962
		}
	],
	"buffers":[
		{
			"byteLength":58728,
			"uri":"data:application/octet-stream;base64,"
		}
	]
}
